<svg xmlns="http://www.w3.org/2000/svg" xmlns:svg="http://www.w3.org/2000/svg" id="svg2" width="20" height="20" version="1.1" viewBox="0 0 20 20" xml:space="preserve"><metadata id="metadata8"/><defs id="defs6"><clipPath id="clipPath16" clipPathUnits="userSpaceOnUse"><path id="path18" d="M 0,16 16,16 16,0 0,0 0,16 Z"/></clipPath><clipPath id="clipPath24" clipPathUnits="userSpaceOnUse"><path id="path26" d="M 4.88281e-4,16 16,16 16,0 4.88281e-4,0 l 0,16 z"/></clipPath></defs><g id="g10" transform="matrix(1.25,0,0,-1.25,0,20)"><g id="g12"><g id="g14" clip-path="url(#clipPath16)"><g id="g20"><g id="g28"><g style="opacity:0" id="g30" clip-path="url(#clipPath24)"><path id="path32" d="M 16,0 0,0 0,16 16,16 16,0 Z" style="fill:#f6f6f6;fill-opacity:1;fill-rule:nonzero;stroke:none"/></g></g></g></g></g><g id="g34" transform="translate(5.5863,16.0002)"><path id="path36" d="m 0,0 -5.586,-5.586 0,-0.828 3.999,-4 2.415,2.414 0.586,0 0,-5.001 1.586,0 2.999,-2.999 0.828,0 3.587,3.585 0,0.829 -2.086,2.086 2.086,2.086 0,0.828 L 7.413,-3.587 5.999,-5 l -2.171,0 1,0.999 L 0.828,0 0,0 Z" style="fill:#f6f6f6;fill-opacity:1;fill-rule:nonzero;stroke:none"/></g><g id="g38" transform="translate(13,6)"><path id="path40" d="m 0,0 2,-2 -3,-3 -2,2 1,1 -3,0 0,5 -2,0 -2,-2 -3,3 5,5 3,-3 -2,-2 5,0 1,1 2,-2 -3,-3 -2,2 1,1 -2,0 0,-4 2.998,-0.002 L 0,0 Z" style="fill:#c27d1a;fill-opacity:1;fill-rule:nonzero;stroke:none"/></g></g></svg>