<svg xmlns="http://www.w3.org/2000/svg" xmlns:svg="http://www.w3.org/2000/svg" id="svg2" width="20" height="20" version="1.1" viewBox="0 0 20 20" xml:space="preserve"><metadata id="metadata8"/><defs id="defs6"><clipPath id="clipPath16" clipPathUnits="userSpaceOnUse"><path id="path18" d="M 0,16 16,16 16,0 0,0 0,16 Z"/></clipPath><clipPath id="clipPath24" clipPathUnits="userSpaceOnUse"><path id="path26" d="M 4.88281e-4,16.0005 16,16.0005 16,0 4.88281e-4,0 l 0,16.0005 z"/></clipPath></defs><g id="g10" transform="matrix(1.25,0,0,-1.25,0,20)"><g id="g12"><g id="g14" clip-path="url(#clipPath16)"><g id="g20"><g id="g28"><g style="opacity:0" id="g30" clip-path="url(#clipPath24)"><path id="path32" d="M 16,0 0,0 0,16 16,16 16,0 Z" style="fill:#f6f6f6;fill-opacity:1;fill-rule:nonzero;stroke:none"/></g></g></g></g></g><g id="g34" transform="translate(12.4141,14)"><path id="path36" d="m 0,0 -8.828,0 -1.586,-1.586 0,-7.828 1.586,-1.586 8.828,0 1.586,1.586 0,7.828 L 0,0 Z" style="fill:#f6f6f6;fill-opacity:1;fill-rule:nonzero;stroke:none"/></g><g id="g38" transform="translate(12,5.4141)"><path id="path40" d="m 0,0 -0.414,-0.414 -7.172,0 L -8,0 l 0,6.172 0.414,0.414 7.172,0 L 0,6.172 0,0 Z m 0,7.586 -8,0 -1,-1 0,-7 1,-1 8,0 1,1 0,7 -1,1 z" style="fill:#424242;fill-opacity:1;fill-rule:nonzero;stroke:none"/></g><path id="path42" d="m 6,9 4,0 0,1 -4,0 0,-1 z" style="fill:#00539c;fill-opacity:1;fill-rule:nonzero;stroke:none"/><path id="path44" d="M 6,7 10,7 10,8 6,8 6,7 Z" style="fill:#00539c;fill-opacity:1;fill-rule:nonzero;stroke:none"/><path id="path46" d="m 10,9 -4,0 0,1 4,0 0,-1 z M 10,7 6,7 6,8 10,8 10,7 Z M 11.586,12 4.414,12 4,11.586 4,5.414 4.414,5 11.586,5 12,5.414 12,11.586 11.586,12 Z" style="fill:#f0eff1;fill-opacity:1;fill-rule:nonzero;stroke:none"/></g></svg>