<svg xmlns="http://www.w3.org/2000/svg" xmlns:svg="http://www.w3.org/2000/svg" id="svg2" width="20" height="20" version="1.1" viewBox="0 0 20 20" xml:space="preserve"><metadata id="metadata8"/><defs id="defs6"><clipPath id="clipPath16" clipPathUnits="userSpaceOnUse"><path id="path18" d="M 0,16 16,16 16,0 0,0 0,16 Z"/></clipPath><clipPath id="clipPath24" clipPathUnits="userSpaceOnUse"><path id="path26" d="M 0,16 16,16 16,0 0,0 0,16 Z"/></clipPath><clipPath id="clipPath42" clipPathUnits="userSpaceOnUse"><path id="path44" d="M 0,16 16,16 16,0 0,0 0,16 Z"/></clipPath></defs><g id="g10" transform="matrix(1.25,0,0,-1.25,0,20)"><g id="g12"><g id="g14" clip-path="url(#clipPath16)"><g id="g20"><g id="g28"><g style="opacity:0" id="g30" clip-path="url(#clipPath24)"><path id="path32" d="M 16,0 0,0 0,16 16,16 16,0 Z" style="fill:#424242;fill-opacity:1;fill-rule:nonzero;stroke:none"/></g></g></g><g id="g34" transform="translate(3,2)"><path id="path36" d="m 0,0 c -1.103,0 -2,0.897 -2,2 l 0,7 c 0,1.103 0.897,2 2,2 l 2,0 0,2 7,0 0,-2 2,0 c 1.103,0 2,-0.897 2,-2 L 13,2 C 13,0.897 12.103,0 11,0 L 0,0 Z" style="fill:#f6f6f6;fill-opacity:1;fill-rule:nonzero;stroke:none"/></g></g></g><g id="g38"><g id="g40" clip-path="url(#clipPath42)"><path id="path46" d="m 13,4 -1,0 0,7 1,0 0,-7 z m -6,9 3,0 0,-1 -3,0 0,1 z M 5,4 4,4 4,11 5,11 5,4 Z m 9,8 -3,0 0,2 -5,0 0,-2 -3,0 C 2.448,12 2,11.552 2,11 L 2,4 C 2,3.447 2.448,3 3,3 l 11,0 c 0.553,0 1,0.447 1,1 l 0,7 c 0,0.552 -0.447,1 -1,1" style="fill:#424242;fill-opacity:1;fill-rule:nonzero;stroke:none"/></g></g><path id="path48" d="m 4,4 1.001,0 0,7 L 4,11 4,4 Z" style="fill:#f0eff1;fill-opacity:1;fill-rule:nonzero;stroke:none"/><path id="path50" d="m 12,4 1,0 0,7 -1,0 0,-7 z" style="fill:#f0eff1;fill-opacity:1;fill-rule:nonzero;stroke:none"/></g></svg>