<svg xmlns="http://www.w3.org/2000/svg" xmlns:svg="http://www.w3.org/2000/svg" id="svg2" width="20" height="20" version="1.1" viewBox="0 0 20 20" xml:space="preserve"><metadata id="metadata8"/><defs id="defs6"><clipPath id="clipPath16" clipPathUnits="userSpaceOnUse"><path id="path18" d="M 0,16 16,16 16,0 0,0 0,16 Z"/></clipPath><clipPath id="clipPath24" clipPathUnits="userSpaceOnUse"><path id="path26" d="M 0,16 16,16 16,0 0,0 0,16 Z"/></clipPath><clipPath id="clipPath38" clipPathUnits="userSpaceOnUse"><path id="path40" d="M 0,16 16,16 16,0 0,0 0,16 Z"/></clipPath></defs><g id="g10" transform="matrix(1.25,0,0,-1.25,0,20)"><g id="g12"><g id="g14" clip-path="url(#clipPath16)"><g id="g20"><g id="g28"><g style="opacity:0" id="g30" clip-path="url(#clipPath24)"><path id="path32" d="M 16,0 0,0 0,16 16,16 16,0 Z" style="fill:#f6f6f6;fill-opacity:1;fill-rule:nonzero;stroke:none"/></g></g></g></g></g><g id="g34"><g id="g36" clip-path="url(#clipPath38)"><g id="g42" transform="translate(9.25,12)"><path id="path44" d="m 0,0 -0.25,0 0,2 -7,0 0,-2 -0.25,0 c -0.965,0 -1.75,-0.785 -1.75,-1.75 l 0,-4.5 C -9.25,-7.215 -8.465,-8 -7.5,-8 L 0,-8 c 0.965,0 1.75,0.785 1.75,1.75 l 0,4.5 C 1.75,-0.785 0.965,0 0,0" style="fill:#f6f6f6;fill-opacity:1;fill-rule:nonzero;stroke:none"/></g><path id="path46" d="m 9,6 -1,0 0,4 1,0 0,-4 z m -5,6 3,0 0,-1 -3,0 0,1 z M 3,6 2,6 2,10 3,10 3,6 Z M 9.25,11 8,11 8,13 3,13 3,11 1.75,11 C 1.336,11 1,10.664 1,10.25 L 1,5.75 C 1,5.336 1.336,5 1.75,5 l 7.5,0 C 9.664,5 10,5.336 10,5.75 l 0,4.5 C 10,10.664 9.664,11 9.25,11" style="fill:#652d90;fill-opacity:1;fill-rule:nonzero;stroke:none"/></g></g><path id="path48" d="M 2,6 3,6 3,10 2,10 2,6 Z" style="fill:#f0eff1;fill-opacity:1;fill-rule:nonzero;stroke:none"/><path id="path50" d="M 8,6 9,6 9,10 8,10 8,6 Z" style="fill:#f0eff1;fill-opacity:1;fill-rule:nonzero;stroke:none"/></g></svg>