<svg xmlns="http://www.w3.org/2000/svg" xmlns:svg="http://www.w3.org/2000/svg" id="svg2" width="20" height="20" version="1.1" viewBox="0 0 20 20" xml:space="preserve"><metadata id="metadata8"/><g id="g10" transform="matrix(1.25,0,0,-1.25,0,20)"><g id="g12" transform="translate(5.5863,16.0002)"><path id="path14" d="m 0,0 -1.587,-1.586 0,-2.415 -3.999,0 0,-6.999 8,0 0,4 2.414,0 1.585,1.586 0,3.828 L 4.828,0 0,0 Z" style="fill:#f6f6f6;fill-opacity:1;fill-rule:nonzero;stroke:none"/></g><g id="g16" transform="translate(11.7558,7.0002)"><path id="path18" d="m 0,0 -0.599,-2 -2.157,0 0,-1.5 1.393,-1.045 L -2.1,-7 -0.423,-7 0.744,-6.125 1.912,-7 3.588,-7 2.851,-4.545 4.244,-3.5 4.244,-2 2.088,-2 1.489,0 0,0 Z" style="fill:#f6f6f6;fill-opacity:1;fill-rule:nonzero;stroke:none"/></g><path id="path20" d="m 10,13 -4,0 0,1 4,0 0,-1 z m 0,2 -4,0 -1,-1 0,-2 5,0 0,-1 -2,0 0,-1 2,0 1,1 0,3 -1,1 z" style="fill:#00539c;fill-opacity:1;fill-rule:nonzero;stroke:none"/><path id="path22" d="M 2,9 6,9 6,8 2,8 2,9 Z M 1,6 7,6 7,11 1,11 1,6 Z" style="fill:#00539c;fill-opacity:1;fill-rule:nonzero;stroke:none"/><path id="path24" d="m 2,8 4.001,0 0,1 L 2,9 2,8 Z" style="fill:#f0eff1;fill-opacity:1;fill-rule:nonzero;stroke:none"/><path id="path26" d="m 6,13 4,0 0,1.001 -4,0 L 6,13 Z" style="fill:#f0eff1;fill-opacity:1;fill-rule:nonzero;stroke:none"/><path id="path28" d="m 8,11 2,0 0,1 -2,0 0,-1 z" style="fill:#f0eff1;fill-opacity:1;fill-rule:nonzero;stroke:none"/><g id="g30" transform="translate(13.4492,2.8359)"><path id="path32" d="m 0,0 1.551,1.164 -1.901,0 -0.599,2 -0.6,-2 -1.9,0 1.551,-1.164 -0.551,-1.836 1.5,1.125 1.5,-1.125 L 0,0 Z" style="fill:#424242;fill-opacity:1;fill-rule:nonzero;stroke:none"/></g></g></svg>