<svg xmlns="http://www.w3.org/2000/svg" xmlns:svg="http://www.w3.org/2000/svg" id="svg2" width="20" height="20" version="1.1" viewBox="0 0 20 20" xml:space="preserve"><metadata id="metadata8"/><g id="g10" transform="matrix(1.25,0,0,-1.25,0,20)"><g id="g12" transform="translate(5.5863,16.0002)"><path id="path14" d="m 0,0 -1.587,-1.586 0,-2.415 -3.999,0 0,-6.999 8,0 0,4 2.414,0 1.585,1.586 0,3.828 L 4.828,0 0,0 Z" style="fill:#f6f6f6;fill-opacity:1;fill-rule:nonzero;stroke:none"/></g><path id="path16" d="M 9,0 16,0 16,7 9,7 9,0 Z" style="fill:#f6f6f6;fill-opacity:1;fill-rule:nonzero;stroke:none"/><path id="path18" d="m 10,13 -4,0 0,1 4,0 0,-1 z m 0,2 -4,0 -1,-1 0,-2 5,0 0,-1 -2,0 0,-1 2,0 1,1 0,3 -1,1 z" style="fill:#00539c;fill-opacity:1;fill-rule:nonzero;stroke:none"/><path id="path20" d="M 2,9 6,9 6,8 2,8 2,9 Z M 1,6 7,6 7,11 1,11 1,6 Z" style="fill:#00539c;fill-opacity:1;fill-rule:nonzero;stroke:none"/><path id="path22" d="m 2,8 4.001,0 0,1 L 2,9 2,8 Z" style="fill:#f0eff1;fill-opacity:1;fill-rule:nonzero;stroke:none"/><path id="path24" d="m 6,13 4,0 0,1.001 -4,0 L 6,13 Z" style="fill:#f0eff1;fill-opacity:1;fill-rule:nonzero;stroke:none"/><path id="path26" d="m 8,11 2,0 0,1 -2,0 0,-1 z" style="fill:#f0eff1;fill-opacity:1;fill-rule:nonzero;stroke:none"/><g id="g28" transform="translate(14,3)"><path id="path30" d="M 0,0 -1,-1 -1,0.5 -2.5,-1 -3,-0.5 -1.5,1 -3,1 -2,2 0,2 0,0 Z m -4,-2 5,0 0,5 -5,0 0,-5 z" style="fill:#424242;fill-opacity:1;fill-rule:nonzero;stroke:none"/></g><g id="g32" transform="translate(14,5)"><path id="path34" d="M 0,0 0,-2 -1,-3 -1,-1.5 -2.5,-3 -3,-2.5 -1.5,-1 -3,-1 -2,0 0,0 Z" style="fill:#f0eff1;fill-opacity:1;fill-rule:nonzero;stroke:none"/></g></g></svg>