<svg xmlns="http://www.w3.org/2000/svg" xmlns:svg="http://www.w3.org/2000/svg" id="svg2" width="20" height="20" version="1.1" viewBox="0 0 20 20" xml:space="preserve"><metadata id="metadata8"/><defs id="defs6"><clipPath id="clipPath16" clipPathUnits="userSpaceOnUse"><path id="path18" d="M 0,16 16,16 16,0 0,0 0,16 Z"/></clipPath><clipPath id="clipPath24" clipPathUnits="userSpaceOnUse"><path id="path26" d="M 0,16 16,16 16,0 0,0 0,16 Z"/></clipPath></defs><g id="g10" transform="matrix(1.25,0,0,-1.25,0,20)"><g id="g12"><g id="g14" clip-path="url(#clipPath16)"><g id="g20"><g id="g28"><g style="opacity:0" id="g30" clip-path="url(#clipPath24)"><path id="path32" d="M 16,0 0,0 0,16 16,16 16,0 Z" style="fill:#f6f6f6;fill-opacity:1;fill-rule:nonzero;stroke:none"/></g></g></g></g></g><g id="g34" transform="translate(5.0004,16.0002)"><path id="path36" d="m 0,0 0,-5.586 -1.001,-1 0,-2.414 -2.414,0 -1.585,-1.586 0,-3.828 1.585,-1.586 4.829,0 1.586,1.586 0,2.413 8,0 L 11,0 0,0 Z" style="fill:#f6f6f6;fill-opacity:1;fill-rule:nonzero;stroke:none"/></g><path id="path38" d="m 14,5 1,0 0,1 -1,0 0,-1 z" style="fill:#424242;fill-opacity:1;fill-rule:nonzero;stroke:none"/><path id="path40" d="m 12,5 1,0 0,1 -1,0 0,-1 z" style="fill:#424242;fill-opacity:1;fill-rule:nonzero;stroke:none"/><g id="g42" transform="translate(6,15)"><path id="path44" d="m 0,0 0,-4 1,0 0,3 7,0 0,-7 1,0 0,8 -9,0 z" style="fill:#424242;fill-opacity:1;fill-rule:nonzero;stroke:none"/></g><path id="path46" d="M 6,4 2,4 2,5 6,5 6,4 Z M 6,2 2,2 2,3 6,3 6,2 Z M 2,6 1,5 1,2 2,1 6,1 7,2 7,5 6,6 2,6 Z" style="fill:#c27d1a;fill-opacity:1;fill-rule:nonzero;stroke:none"/><path id="path48" d="M 10,8 6,8 6,9 10,9 10,8 Z M 6,10 5,9 5,7 10,7 10,6 7.414,6 8,5.414 8,5 l 2,0 1,1 0,3 -1,1 -4,0 z" style="fill:#c27d1a;fill-opacity:1;fill-rule:nonzero;stroke:none"/><path id="path50" d="m 2,4 4.001,0 0,1.001 L 2,5.001 2,4 Z" style="fill:#f0eff1;fill-opacity:1;fill-rule:nonzero;stroke:none"/><path id="path52" d="m 2,2 4.001,0 0,1 L 2,3 2,2 Z" style="fill:#f0eff1;fill-opacity:1;fill-rule:nonzero;stroke:none"/><path id="path54" d="M 6,8 10,8 10,9 6,9 6,8 Z" style="fill:#f0eff1;fill-opacity:1;fill-rule:nonzero;stroke:none"/><g id="g56" transform="translate(6.4143,7.0002)"><path id="path58" d="m 0,0 1,-1 2.586,0 0,1 L 0,0 Z" style="fill:#f0eff1;fill-opacity:1;fill-rule:nonzero;stroke:none"/></g><g id="g60" transform="translate(7,14)"><path id="path62" d="M 0,0 0,-3 3.414,-3 5,-4.586 5,-7 7,-7 7,0 0,0 Z" style="fill:#f0eff1;fill-opacity:1;fill-rule:nonzero;stroke:none"/></g></g></svg>