<svg xmlns="http://www.w3.org/2000/svg" xmlns:svg="http://www.w3.org/2000/svg" id="svg2" width="20" height="20" version="1.1" viewBox="0 0 20 20" xml:space="preserve"><metadata id="metadata8"/><defs id="defs6"><clipPath id="clipPath20" clipPathUnits="userSpaceOnUse"><path id="path22" d="M 0,16 16,16 16,0 0,0 0,16 Z"/></clipPath><clipPath id="clipPath34" clipPathUnits="userSpaceOnUse"><path id="path36" d="M 0,16 16,16 16,0 0,0 0,16 Z"/></clipPath></defs><g id="g10" transform="matrix(1.25,0,0,-1.25,0,20)"><g id="g12" transform="translate(5.5863,16.0002)"><path id="path14" d="m 0,0 -1.587,-1.586 0,-2.415 -2.414,0 -1.585,-1.585 0,-3.828 1.585,-1.586 4.829,0 1.586,1.586 0,2.414 2.414,0 1.585,1.586 0,3.828 L 4.828,0 0,0 Z" style="fill:#f6f6f6;fill-opacity:1;fill-rule:nonzero;stroke:none"/></g><g id="g16"><g id="g18" clip-path="url(#clipPath20)"><g id="g24" transform="translate(15.9199,5)"><path id="path26" d="M 0,0 C -0.124,1.174 -0.571,2.969 -3.326,2.969 -6.234,2.969 -6.694,1.129 -6.843,0 l -0.077,0 0,-1.563 0,-3.437 7,0" style="fill:#f6f6f6;fill-opacity:1;fill-rule:nonzero;stroke:none"/></g></g></g><path id="path28" d="m 13,2 -1,0 0,1 1,0 0,-1 z m 1,2 -3,0 -1,0 0,-3 5,0 0,3 -1,0 z" style="fill:#424242;fill-opacity:1;fill-rule:nonzero;stroke:none"/><g id="g30"><g id="g32" clip-path="url(#clipPath34)"><g id="g38" transform="translate(11.0186,4.4375)"><path id="path40" d="M 0,0 C 0.06,0.729 0.334,1.541 1.575,1.541 2.824,1.541 2.966,0.746 2.979,0 L 3.945,0 C 3.86,1.119 3.802,2.531 1.575,2.531 -0.82,2.531 -0.87,1.125 -1.001,0 L 0,0 Z" style="fill:#424242;fill-opacity:1;fill-rule:nonzero;stroke:none"/></g></g></g><path id="path42" d="M 6,9 2,9 2,10 6,10 6,9 Z M 6,7 2,7 2,8 6,8 6,7 Z M 6,11 2,11 1,10 1,7 2,6 6,6 7,7 7,10 6,11 Z" style="fill:#c27d1a;fill-opacity:1;fill-rule:nonzero;stroke:none"/><path id="path44" d="m 10,13 -4,0 0,1 4,0 0,-1 z m 0,2 -4,0 -1,-1 0,-2 5,0 0,-1 L 7.414,11 8,10.414 8,10 l 2,0 1,1 0,3 -1,1 z" style="fill:#c27d1a;fill-opacity:1;fill-rule:nonzero;stroke:none"/><path id="path46" d="M 6,10 2,10 2,9 6,9 6,10 Z M 6,8 2,8 2,7 6,7 6,8 Z m 4,6 -4,0 0,-1 4,0 0,1 z m 0,-2 0,-1 -2.586,0 -1,1 3.586,0 z" style="fill:#f0eff1;fill-opacity:1;fill-rule:nonzero;stroke:none"/><path id="path48" d="m 12,2 1,0 0,1 -1,0 0,-1 z" style="fill:#f0eff1;fill-opacity:1;fill-rule:nonzero;stroke:none"/></g></svg>