<svg xmlns="http://www.w3.org/2000/svg" xmlns:svg="http://www.w3.org/2000/svg" id="svg2" width="20" height="20" version="1.1" viewBox="0 0 20 20" xml:space="preserve"><metadata id="metadata8"/><defs id="defs6"><clipPath id="clipPath16" clipPathUnits="userSpaceOnUse"><path id="path18" d="M 0,16 16,16 16,0 0,0 0,16 Z"/></clipPath><clipPath id="clipPath24" clipPathUnits="userSpaceOnUse"><path id="path26" d="M 4.88281e-4,16.0005 16,16.0005 16,0 4.88281e-4,0 l 0,16.0005 z"/></clipPath></defs><g id="g10" transform="matrix(1.25,0,0,-1.25,0,20)"><g id="g12"><g id="g14" clip-path="url(#clipPath16)"><g id="g20"><g id="g28"><g style="opacity:0" id="g30" clip-path="url(#clipPath24)"><path id="path32" d="M 16,0 0,0 0,16 16,16 16,0 Z" style="fill:#f6f6f6;fill-opacity:1;fill-rule:nonzero;stroke:none"/></g></g></g></g></g><g id="g34" transform="translate(5.5863,14.0004)"><path id="path36" d="m 0,0 -1.587,-1.587 0,-2.414 -2.414,0 -1.585,-1.585 0,-3.829 1.585,-1.586 4.829,0 1.586,1.586 0,2.415 2.414,0 1.585,1.586 0,3.827 L 4.828,0 0,0 Z" style="fill:#f6f6f6;fill-opacity:1;fill-rule:nonzero;stroke:none"/></g><path id="path38" d="M 6,7 2,7 2,8 6,8 6,7 Z M 6,5 2,5 2,6 6,6 6,5 Z M 6,9 2,9 1,8 1,5 2,4 6,4 7,5 7,8 6,9 Z" style="fill:#c27d1a;fill-opacity:1;fill-rule:nonzero;stroke:none"/><path id="path40" d="m 10,11 -4,0 0,1 4,0 0,-1 z m 0,2 -4,0 -1,-1 0,-2 5,0 L 10,9 7.414,9 8,8.414 8,8 l 2,0 1,1 0,3 -1,1 z" style="fill:#c27d1a;fill-opacity:1;fill-rule:nonzero;stroke:none"/><path id="path42" d="M 6,8 2,8 2,7 6,7 6,8 Z M 6,6 2,6 2,5 6,5 6,6 Z m 4,6 -4,0 0,-1 4,0 0,1 z m 0,-2 0,-1 -2.586,0 -1,1 3.586,0 z" style="fill:#f0eff1;fill-opacity:1;fill-rule:nonzero;stroke:none"/></g></svg>