<svg xmlns="http://www.w3.org/2000/svg" xmlns:svg="http://www.w3.org/2000/svg" id="svg2" width="20" height="20" version="1.1" viewBox="0 0 20 20" xml:space="preserve"><metadata id="metadata8"/><defs id="defs6"><clipPath id="clipPath16" clipPathUnits="userSpaceOnUse"><path id="path18" d="M 0,16 16,16 16,0 0,0 0,16 Z"/></clipPath><clipPath id="clipPath24" clipPathUnits="userSpaceOnUse"><path id="path26" d="M 4.88281e-4,16.0005 16,16.0005 16,0 4.88281e-4,0 l 0,16.0005 z"/></clipPath></defs><g id="g10" transform="matrix(1.25,0,0,-1.25,0,20)"><g id="g12"><g id="g14" clip-path="url(#clipPath16)"><g id="g20"><g id="g28"><g style="opacity:0" id="g30" clip-path="url(#clipPath24)"><path id="path32" d="M 16,0 0,0 0,16 16,16 16,0 Z" style="fill:#f6f6f6;fill-opacity:1;fill-rule:nonzero;stroke:none"/></g></g></g></g></g><g id="g34" transform="translate(7.8417,3.7935)"><path id="path36" d="m 0,0 -0.876,-3.794 1.439,0 2.423,0.808 L 8.158,2.151 5.154,5.154 0,0 Z" style="fill:#f6f6f6;fill-opacity:1;fill-rule:nonzero;stroke:none"/></g><g id="g38" transform="translate(7.4131,12)"><path id="path40" d="m 0,0 2.589,2.586 0,1.414 -5.62,0 -3.382,-6.764 0,-1.236 2.382,0 -2,-4 2.532,0 6.588,6.586 L 3.089,0 0,0 Z" style="fill:#f6f6f6;fill-opacity:1;fill-rule:nonzero;stroke:none"/></g><g id="g42" transform="translate(8.2217,0.9932)"><path id="path44" d="M 0,0 2.121,0.707 0.53,2.299 0,0 Z M 4.95,3.535 3.358,5.127 1.237,3.006 2.828,1.414 4.95,3.535 Z M 5.657,4.242 4.065,5.834 4.773,6.541 6.364,4.95 5.657,4.242 Z" style="fill:#424242;fill-opacity:1;fill-rule:nonzero;stroke:none"/></g><g id="g46" transform="translate(9.002,15)"><path id="path48" d="m 0,0 -4.002,0 -3,-6 3,0 -2,-4 0.5,0 L 0.5,-4 -4.002,-4 0,0 Z" style="fill:#424242;fill-opacity:1;fill-rule:nonzero;stroke:none"/></g></g></svg>