<svg xmlns="http://www.w3.org/2000/svg" xmlns:svg="http://www.w3.org/2000/svg" id="svg2" width="20" height="20" version="1.1" viewBox="0 0 20 20" xml:space="preserve"><metadata id="metadata8"/><defs id="defs6"><clipPath id="clipPath16" clipPathUnits="userSpaceOnUse"><path id="path18" d="M 0,16 16,16 16,0 0,0 0,16 Z"/></clipPath><clipPath id="clipPath24" clipPathUnits="userSpaceOnUse"><path id="path26" d="M 4.88281e-4,16.0005 16,16.0005 16,0 4.88281e-4,0 l 0,16.0005 z"/></clipPath></defs><g id="g10" transform="matrix(1.25,0,0,-1.25,0,20)"><g id="g12"><g id="g14" clip-path="url(#clipPath16)"><g id="g20"><g id="g28"><g style="opacity:0" id="g30" clip-path="url(#clipPath24)"><path id="path32" d="M 16,0 0,0 0,16 16,16 16,0 Z" style="fill:#f6f6f6;fill-opacity:1;fill-rule:nonzero;stroke:none"/></g></g></g></g></g><g id="g34" transform="translate(4.3821,16.0002)"><path id="path36" d="m 0,0 -4,-8 3,0 -2.001,-4.001 2.533,0 3.85,3.851 1.852,-1.85 -2.587,0 0,-4 2.587,0 -2.001,-2 4.828,0 3.557,3.557 0,0.886 -3.557,3.557 -4.529,0 4,3.999 -4.5,0 L 7.032,0 0,0 Z" style="fill:#f6f6f6;fill-opacity:1;fill-rule:nonzero;stroke:none"/></g><g id="g38" transform="translate(12.0293,7)"><path id="path40" d="m 0,0 -2,0 2,-2 -4,0 0,-2 4,0 -2,-2 2,0 3,3 -3,3 z" style="fill:#424242;fill-opacity:1;fill-rule:nonzero;stroke:none"/></g><g id="g42" transform="translate(9,15)"><path id="path44" d="m 0,0 -4,0 -3,-6 3,0 -2,-4 0.5,0 6,6 -4.5,0 4,4 z" style="fill:#424242;fill-opacity:1;fill-rule:nonzero;stroke:none"/></g></g></svg>