<svg xmlns="http://www.w3.org/2000/svg" xmlns:svg="http://www.w3.org/2000/svg" id="svg2" width="20" height="20" version="1.1" viewBox="0 0 20 20" xml:space="preserve"><metadata id="metadata8"/><g id="g10" transform="matrix(1.25,0,0,-1.25,0,20)"><g id="g12" transform="translate(3.3822,16.0002)"><path id="path14" d="m 0,0 -3.382,-6.764 0,-1.236 2.381,0 -2,-4.001 2.533,0 6.586,6.587 0,1.413 -3.086,0 2.586,2.587 L 5.618,0 0,0 Z" style="fill:#f6f6f6;fill-opacity:1;fill-rule:nonzero;stroke:none"/></g><path id="path16" d="M 9,0 16,0 16,7 9,7 9,0 Z" style="fill:#f6f6f6;fill-opacity:1;fill-rule:nonzero;stroke:none"/><g id="g18" transform="translate(4,11)"><path id="path20" d="M 0,0 4,4 0,4 -3,-2 0.018,-2 -2,-6 l 0.518,0 6,6 L 0,0 Z" style="fill:#c27d1a;fill-opacity:1;fill-rule:nonzero;stroke:none"/></g><g id="g22" transform="translate(14,3)"><path id="path24" d="M 0,0 -1,-1 -1,0.5 -2.5,-1 -3,-0.5 -1.5,1 -3,1 -2,2 0,2 0,0 Z m -4,-2 5,0 0,5 -5,0 0,-5 z" style="fill:#424242;fill-opacity:1;fill-rule:nonzero;stroke:none"/></g><g id="g26" transform="translate(14,5)"><path id="path28" d="M 0,0 0,-2 -1,-3 -1,-1.5 -2.5,-3 -3,-2.5 -1.5,-1 -3,-1 -2,0 0,0 Z" style="fill:#f0eff1;fill-opacity:1;fill-rule:nonzero;stroke:none"/></g></g></svg>