<svg xmlns="http://www.w3.org/2000/svg" xmlns:svg="http://www.w3.org/2000/svg" id="svg2" width="20" height="20" version="1.1" viewBox="0 0 20 20" xml:space="preserve"><metadata id="metadata8"/><defs id="defs6"><clipPath id="clipPath20" clipPathUnits="userSpaceOnUse"><path id="path22" d="M 0,16 16,16 16,0 0,0 0,16 Z"/></clipPath><clipPath id="clipPath38" clipPathUnits="userSpaceOnUse"><path id="path40" d="M 0,16 16,16 16,0 0,0 0,16 Z"/></clipPath></defs><g id="g10" transform="matrix(1.25,0,0,-1.25,0,20)"><g id="g12" transform="translate(3.3822,16.0002)"><path id="path14" d="m 0,0 -3.382,-6.764 0,-1.236 2.381,0 -2,-4.001 2.533,0 6.586,6.587 0,1.413 -3.086,0 2.586,2.587 L 5.618,0 0,0 Z" style="fill:#f6f6f6;fill-opacity:1;fill-rule:nonzero;stroke:none"/></g><g id="g16"><g id="g18" clip-path="url(#clipPath20)"><g id="g24" transform="translate(9,0)"><path id="path26" d="m 0,0 0.005,3.984 c 0,0 -0.225,3.985 3.589,3.985 C 5.126,7.969 7,7.002 7,3.993 L 7,0 0,0 Z" style="fill:#f6f6f6;fill-opacity:1;fill-rule:nonzero;stroke:none"/></g><path id="path28" d="m 13,2 -1,0 0,0.959 1,0 L 13,2 Z" style="fill:#f0eff1;fill-opacity:1;fill-rule:nonzero;stroke:none"/></g></g><g id="g30" transform="translate(4,11)"><path id="path32" d="M 0,0 4,4 0,4 -3,-2 0.018,-2 -2,-6 l 0.518,0 6,6 L 0,0 Z" style="fill:#c27d1a;fill-opacity:1;fill-rule:nonzero;stroke:none"/></g><g id="g34"><g id="g36" clip-path="url(#clipPath38)"><g id="g42" transform="translate(11.0186,4.4375)"><path id="path44" d="M 0,0 C 0.06,0.729 0.334,1.541 1.575,1.541 2.824,1.541 2.966,0.746 2.979,0 L 3.945,0 C 3.86,1.119 3.802,2.531 1.575,2.531 -0.82,2.531 -0.87,1.125 -1.001,0 L 0,0 Z" style="fill:#424242;fill-opacity:1;fill-rule:nonzero;stroke:none"/></g><path id="path46" d="m 13,2 -1,0 0,1 1,0 0,-1 z m 1,2 -3,0 -1,0 0,-3 5,0 0,3 -1,0 z" style="fill:#424242;fill-opacity:1;fill-rule:nonzero;stroke:none"/></g></g><path id="path48" d="m 12,2 1,0 0,1 -1,0 0,-1 z" style="fill:#f0eff1;fill-opacity:1;fill-rule:nonzero;stroke:none"/></g></svg>