<svg xmlns="http://www.w3.org/2000/svg" xmlns:svg="http://www.w3.org/2000/svg" id="svg2" width="20" height="20" version="1.1" viewBox="0 0 20 20" xml:space="preserve"><metadata id="metadata8"/><defs id="defs6"><clipPath id="clipPath16" clipPathUnits="userSpaceOnUse"><path id="path18" d="M 0,16 16,16 16,0 0,0 0,16 Z"/></clipPath><clipPath id="clipPath24" clipPathUnits="userSpaceOnUse"><path id="path26" d="M 4.88281e-4,16.0005 16,16.0005 16,0 4.88281e-4,0 l 0,16.0005 z"/></clipPath><clipPath id="clipPath48" clipPathUnits="userSpaceOnUse"><path id="path50" d="M 0,16 16,16 16,0 0,0 0,16 Z"/></clipPath><clipPath id="clipPath60" clipPathUnits="userSpaceOnUse"><path id="path62" d="M 0,16 16,16 16,0 0,0 0,16 Z"/></clipPath></defs><g id="g10" transform="matrix(1.25,0,0,-1.25,0,20)"><g id="g12"><g id="g14" clip-path="url(#clipPath16)"><g id="g20"><g id="g28"><g style="opacity:0" id="g30" clip-path="url(#clipPath24)"><path id="path32" d="M 16,0 0,0 0,16 16,16 16,0 Z" style="fill:#f6f6f6;fill-opacity:1;fill-rule:nonzero;stroke:none"/></g></g></g><g id="g34" transform="translate(12.5938,7.9683)"><path id="path36" d="m 0,0 c -0.642,0 -1.16,-0.12 -1.594,-0.307 l 0,8.339 -10.999,0 0,-11 9.086,0 c -0.103,-0.58 -0.082,-1.016 -0.082,-1.016 l -0.005,-3.984 7,0 0,3.992 C 3.406,-0.967 1.532,0 0,0" style="fill:#f6f6f6;fill-opacity:1;fill-rule:nonzero;stroke:none"/></g><path id="path38" d="m 13,2 -1,0 0,0.959 1,0 L 13,2 Z" style="fill:#f0eff1;fill-opacity:1;fill-rule:nonzero;stroke:none"/></g></g><path id="path40" d="m 5,10 1,0 0,3 -1,0 0,-3 z" style="fill:#424242;fill-opacity:1;fill-rule:nonzero;stroke:none"/><path id="path42" d="M 5,8 6,8 6,9 5,9 5,8 Z" style="fill:#424242;fill-opacity:1;fill-rule:nonzero;stroke:none"/><g id="g44"><g id="g46" clip-path="url(#clipPath48)"><path id="path52" d="M 2,14 9,14 9,7 2,7 2,14 Z M 10,6.961 10,15 1,15 1,6 9.381,6 C 9.524,6.335 9.728,6.666 10,6.961" style="fill:#424242;fill-opacity:1;fill-rule:nonzero;stroke:none"/></g></g><path id="path54" d="m 6,10 -1,0 0,3 1,0 0,-3 z M 6,8 5,8 5,9 6,9 6,8 Z M 2,7 9,7 9,14 2,14 2,7 Z" style="fill:#f0eff1;fill-opacity:1;fill-rule:nonzero;stroke:none"/><g id="g56"><g id="g58" clip-path="url(#clipPath60)"><g id="g64" transform="translate(11.0186,4.4375)"><path id="path66" d="M 0,0 C 0.06,0.729 0.334,1.541 1.575,1.541 2.824,1.541 2.966,0.746 2.979,0 L 3.945,0 C 3.86,1.119 3.802,2.531 1.575,2.531 -0.82,2.531 -0.87,1.125 -1.001,0 L 0,0 Z" style="fill:#424242;fill-opacity:1;fill-rule:nonzero;stroke:none"/></g><path id="path68" d="m 13,2 -1,0 0,1 1,0 0,-1 z m 1,2 -3,0 -1,0 0,-3 5,0 0,3 -1,0 z" style="fill:#424242;fill-opacity:1;fill-rule:nonzero;stroke:none"/></g></g><path id="path70" d="m 12,2 1,0 0,1 -1,0 0,-1 z" style="fill:#f0eff1;fill-opacity:1;fill-rule:nonzero;stroke:none"/></g></svg>