<svg xmlns="http://www.w3.org/2000/svg" xmlns:svg="http://www.w3.org/2000/svg" id="svg2" width="20" height="20" version="1.1" viewBox="0 0 20 20" xml:space="preserve"><metadata id="metadata8"/><defs id="defs6"><clipPath id="clipPath16" clipPathUnits="userSpaceOnUse"><path id="path18" d="M 0,16 16,16 16,0 0,0 0,16 Z"/></clipPath><clipPath id="clipPath24" clipPathUnits="userSpaceOnUse"><path id="path26" d="M 0,16 16,16 16,0 0,0 0,16 Z"/></clipPath></defs><g id="g10" transform="matrix(1.25,0,0,-1.25,0,20)"><g id="g12"><g id="g14" clip-path="url(#clipPath16)"><g id="g20"><g id="g28"><g style="opacity:0" id="g30" clip-path="url(#clipPath24)"><path id="path32" d="M 16,0 0,0 0,16 16,16 16,0 Z" style="fill:#f6f6f6;fill-opacity:1;fill-rule:nonzero;stroke:none"/></g></g></g></g></g><g id="g34" transform="translate(6.7392,14.0004)"><path id="path36" d="m 0,0 -6.739,-3.37 0,-5.236 4.789,-2.395 0.42,0 6.79,3.395 0,5.236 L 0.524,0 0,0 Z" style="fill:#f6f6f6;fill-opacity:1;fill-rule:nonzero;stroke:none"/></g><g id="g38" transform="translate(5,9)"><path id="path40" d="M 0,0 -2,1 2,3 4,2 0,0 Z m -4,1 0,-4 4,-2 6,3 0,4 -4,2 -6,-3 z" style="fill:#00539c;fill-opacity:1;fill-rule:nonzero;stroke:none"/></g><g id="g42" transform="translate(7,12)"><path id="path44" d="m 0,0 2,-1 -4,-2 -2,1 4,2 z" style="fill:#f0eff1;fill-opacity:1;fill-rule:nonzero;stroke:none"/></g></g></svg>