<svg xmlns="http://www.w3.org/2000/svg" xmlns:svg="http://www.w3.org/2000/svg" id="svg2" width="20" height="20" version="1.1" viewBox="0 0 20 20" xml:space="preserve"><metadata id="metadata8"/><defs id="defs6"><clipPath id="clipPath16" clipPathUnits="userSpaceOnUse"><path id="path18" d="M 0,16 16,16 16,0 0,0 0,16 Z"/></clipPath><clipPath id="clipPath24" clipPathUnits="userSpaceOnUse"><path id="path26" d="M 0,16 16,16 16,0 0,0 0,16 Z"/></clipPath></defs><g id="g10" transform="matrix(1.25,0,0,-1.25,0,20)"><g id="g12"><g id="g14" clip-path="url(#clipPath16)"><g id="g20"><g id="g28"><g style="opacity:0" id="g30" clip-path="url(#clipPath24)"><path id="path32" d="M 16,0 0,0 0,16 16,16 16,0 Z" style="fill:#f6f6f6;fill-opacity:1;fill-rule:nonzero;stroke:none"/></g></g></g></g></g><g id="g34" transform="translate(12.9996,8.0001)"><path id="path36" d="m 0,0 -2,0 -1,-1 0,-2 1,0 0,-2 -1,0 0,-3 2,0 1,0 2.001,0 0,3 -1,0 0,2 1,0 0,3 L 0,0 Z" style="fill:#f6f6f6;fill-opacity:1;fill-rule:nonzero;stroke:none"/></g><path id="path38" d="m 12,2 1,0 0,4.001 -1,0 L 12,2 Z" style="fill:#424242;fill-opacity:1;fill-rule:nonzero;stroke:none"/><path id="path40" d="m 13,6 1.001,0 0,1 L 13,7 13,6 Z" style="fill:#424242;fill-opacity:1;fill-rule:nonzero;stroke:none"/><path id="path42" d="m 11,6 1,0 0,1 -1,0 0,-1 z" style="fill:#424242;fill-opacity:1;fill-rule:nonzero;stroke:none"/><path id="path44" d="m 11,1 1,0 0,1 -1,0 0,-1 z" style="fill:#424242;fill-opacity:1;fill-rule:nonzero;stroke:none"/><path id="path46" d="m 13,1 1.001,0 0,1 L 13,2 13,1 Z" style="fill:#424242;fill-opacity:1;fill-rule:nonzero;stroke:none"/><g id="g48" transform="translate(6.7392,16.0002)"><path id="path50" d="m 0,0 -6.739,-3.37 0,-5.236 4.789,-2.394 0.42,0 6.79,3.394 0,5.236 L 0.524,0 0,0 Z" style="fill:#f6f6f6;fill-opacity:1;fill-rule:nonzero;stroke:none"/></g><g id="g52" transform="translate(5,11)"><path id="path54" d="M 0,0 -2,1 2,3 4,2 0,0 Z m -4,1 0,-4 4,-2 6,3 0,4 -4,2 -6,-3 z" style="fill:#00539c;fill-opacity:1;fill-rule:nonzero;stroke:none"/></g><g id="g56" transform="translate(3,12)"><path id="path58" d="M 0,0 2,-1 6,1 4,2 0,0 Z" style="fill:#f0eff1;fill-opacity:1;fill-rule:nonzero;stroke:none"/></g></g></svg>