<svg xmlns="http://www.w3.org/2000/svg" xmlns:svg="http://www.w3.org/2000/svg" id="svg2" width="20" height="20" version="1.1" viewBox="0 0 20 20" xml:space="preserve"><metadata id="metadata8"/><defs id="defs6"><clipPath id="clipPath16" clipPathUnits="userSpaceOnUse"><path id="path18" d="M 0,16 16,16 16,0 0,0 0,16 Z"/></clipPath><clipPath id="clipPath24" clipPathUnits="userSpaceOnUse"><path id="path26" d="M 0,16 16,16 16,0 0,0 0,16 Z"/></clipPath><clipPath id="clipPath38" clipPathUnits="userSpaceOnUse"><path id="path40" d="M 0,16 16,16 16,0 0,0 0,16 Z"/></clipPath><clipPath id="clipPath56" clipPathUnits="userSpaceOnUse"><path id="path58" d="M 0,16 16,16 16,0 0,0 0,16 Z"/></clipPath></defs><g id="g10" transform="matrix(1.25,0,0,-1.25,0,20)"><g id="g12"><g id="g14" clip-path="url(#clipPath16)"><g id="g20"><g id="g28"><g style="opacity:0" id="g30" clip-path="url(#clipPath24)"><path id="path32" d="M 16,0 0,0 0,16 16,16 16,0 Z" style="fill:#f6f6f6;fill-opacity:1;fill-rule:nonzero;stroke:none"/></g></g></g><g id="g34"><g id="g42"><g style="opacity:.00999451" id="g44" clip-path="url(#clipPath38)"><path id="path46" d="M 16,0 0,0 0,16 16,16 16,0 Z" style="fill:#f6f6f6;fill-opacity:1;fill-rule:nonzero;stroke:none"/></g></g></g><g id="g48" transform="translate(16,7.1504)"><path id="path50" d="m 0,0 -2.557,0 -1.949,-1.742 -1.071,1.284 c -0.235,0.258 -0.572,0.412 -0.939,0.444 L -4,1.244 -4,6.48 -8.737,8.85 -9.261,8.85 -16,5.48 l 0,-5.236 4.789,-2.394 0.42,0 2.837,1.418 c -0.132,-0.225 -0.21,-0.481 -0.211,-0.744 -0.001,-0.397 0.156,-0.772 0.477,-1.087 l 1.133,-1.012 -1.166,-1.042 c -0.288,-0.284 -0.445,-0.66 -0.444,-1.058 0.002,-0.396 0.165,-0.781 0.448,-1.056 0.274,-0.267 0.662,-0.419 1.067,-0.419 0.418,0 0.81,0.168 1.097,0.487 l 1.047,1.255 1.949,-1.742 2.557,0 -2.979,3.575 L 0,0 Z" style="fill:#f6f6f6;fill-opacity:1;fill-rule:nonzero;stroke:none"/></g></g></g><g id="g52"><g id="g54" clip-path="url(#clipPath56)"><g id="g60" transform="translate(10.6934,3.6816)"><path id="path62" d="m 0,0 -1.878,-1.679 c -0.259,-0.255 -0.216,-0.628 0,-0.838 0.21,-0.204 0.641,-0.235 0.854,0 L 0.615,-0.55 3,-2.682 l 0.307,0 L 1.072,0 3.307,2.682 3,2.682 0.615,0.55 -1.024,2.517 c -0.213,0.234 -0.644,0.204 -0.854,0 -0.216,-0.21 -0.259,-0.583 0,-0.838 L 0,0 Z" style="fill:#a1260d;fill-opacity:1;fill-rule:nonzero;stroke:none"/></g><g id="g64" transform="translate(5,11)"><path id="path66" d="M 0,0 -2,1 2,3 4,2 0,0 Z m -4,1 0,-4 4,-2 6,3 0,4 -4,2 -6,-3 z" style="fill:#00539c;fill-opacity:1;fill-rule:nonzero;stroke:none"/></g></g></g><g id="g68" transform="translate(3,12)"><path id="path70" d="M 0,0 2,-1 6,1 4,2 0,0 Z" style="fill:#f0eff1;fill-opacity:1;fill-rule:nonzero;stroke:none"/></g></g></svg>