<svg xmlns="http://www.w3.org/2000/svg" xmlns:svg="http://www.w3.org/2000/svg" id="svg2" width="20" height="20" version="1.1" viewBox="0 0 20 20" xml:space="preserve"><metadata id="metadata8"/><defs id="defs6"><clipPath id="clipPath16" clipPathUnits="userSpaceOnUse"><path id="path18" d="M 0,16 16,16 16,0 0,0 0,16 Z"/></clipPath><clipPath id="clipPath24" clipPathUnits="userSpaceOnUse"><path id="path26" d="M 0,16 16,16 16,0 0,0 0,16 Z"/></clipPath><clipPath id="clipPath38" clipPathUnits="userSpaceOnUse"><path id="path40" d="M 0,16 16,16 16,0 0,0 0,16 Z"/></clipPath><clipPath id="clipPath50" clipPathUnits="userSpaceOnUse"><path id="path52" d="M 0,16 16,16 16,0 0,0 0,16 Z"/></clipPath></defs><g id="g10" transform="matrix(1.25,0,0,-1.25,0,20)"><g id="g12"><g id="g14" clip-path="url(#clipPath16)"><g id="g20"><g id="g28"><g style="opacity:0" id="g30" clip-path="url(#clipPath24)"><path id="path32" d="M 16,0 0,0 0,16 16,16 16,0 Z" style="fill:#f6f6f6;fill-opacity:1;fill-rule:nonzero;stroke:none"/></g></g></g></g></g><g id="g34"><g id="g36" clip-path="url(#clipPath38)"><g id="g42" transform="translate(4,1)"><path id="path44" d="m 0,0 c -0.97,0 -2,0.701 -2,2 l 0,10 c 0,1.299 1.03,2 2,2 L 6.061,14 10,10.444 10,2 C 10,1.03 9.299,0 8,0 L 0,0 Z" style="fill:#f6f6f6;fill-opacity:1;fill-rule:nonzero;stroke:none"/></g></g></g><g id="g46"><g id="g48" clip-path="url(#clipPath50)"><g id="g54" transform="translate(12,3)"><path id="path56" d="m 0,0 -8,0 0,10 5,0 0,-3 3,0 0,-7 z m -2.359,11 -5.677,0 C -8.036,11 -9,11 -9,10 L -9,0 c 0,-1 0.965,-1 0.965,-1 l 8,0 C 0.965,-1 1,0 1,0 l 0,8 -3.359,3 z" style="fill:#424242;fill-opacity:1;fill-rule:nonzero;stroke:none"/></g></g></g><g id="g58" transform="translate(4,13)"><path id="path60" d="m 0,0 5,0 0,-3 3,0 0,-7 -8,0 0,10 z" style="fill:#f0eff1;fill-opacity:1;fill-rule:nonzero;stroke:none"/></g></g></svg>