<svg xmlns="http://www.w3.org/2000/svg" xmlns:svg="http://www.w3.org/2000/svg" id="svg2" width="20" height="20" version="1.1" viewBox="0 0 20 20" xml:space="preserve"><metadata id="metadata8"/><defs id="defs6"><clipPath id="clipPath16" clipPathUnits="userSpaceOnUse"><path id="path18" d="M 0,16 16,16 16,0 0,0 0,16 Z"/></clipPath><clipPath id="clipPath32" clipPathUnits="userSpaceOnUse"><path id="path34" d="M 0,16 16,16 16,0 0,0 0,16 Z"/></clipPath><clipPath id="clipPath44" clipPathUnits="userSpaceOnUse"><path id="path46" d="M 0,16 16,16 16,0 0,0 0,16 Z"/></clipPath></defs><g id="g10" transform="matrix(1.25,0,0,-1.25,0,20)"><g id="g12"><g id="g14" clip-path="url(#clipPath16)"><g id="g20" transform="translate(16,11.5)"><path id="path22" d="m 0,0 c 0,2.482 -2.019,4.5 -4.5,4.5 -1.914,0 -3.601,-1.24 -4.227,-3 l -1.682,0 C -10.934,2.412 -11.912,3 -13,3 c -1.654,0 -3,-1.346 -3,-3 0,-1.654 1.346,-3 3,-3 1.088,0 2.066,0.59 2.591,1.5 l 1.682,0 c 0.626,-1.758 2.313,-3 4.227,-3 2.481,0 4.5,2.02 4.5,4.5" style="fill:#f6f6f6;fill-opacity:1;fill-rule:nonzero;stroke:none"/></g><g id="g24" transform="translate(13.2441,7)"><path id="path26" d="m 0,0 -1.488,0 -0.6,-2 -2.156,0 0,-1.5 1.392,-1.045 L -3.588,-7 -1.911,-7 -0.744,-6.125 0.423,-7 2.1,-7 1.363,-4.545 2.756,-3.5 2.756,-2 0.6,-2 0,0 Z" style="fill:#f6f6f6;fill-opacity:1;fill-rule:nonzero;stroke:none"/></g></g></g><g id="g28"><g id="g30" clip-path="url(#clipPath32)"><g id="g36" transform="translate(11.5,10)"><path id="path38" d="M 0,0 C -0.827,0 -1.5,0.674 -1.5,1.5 -1.5,2.328 -0.827,3 0,3 0.827,3 1.5,2.328 1.5,1.5 1.5,0.674 0.827,0 0,0 M 0,5 C -1.759,5 -3.204,3.692 -3.449,2 l -3.122,0 c -0.223,0.861 -0.998,1.5 -1.929,1.5 -1.104,0 -2,-0.895 -2,-2 0,-1.104 0.896,-2 2,-2 0.931,0 1.706,0.639 1.929,1.5 l 3.122,0 C -3.204,-0.691 -1.759,-2 0,-2 1.93,-2 3.5,-0.43 3.5,1.5 3.5,3.431 1.93,5 0,5" style="fill:#00539c;fill-opacity:1;fill-rule:nonzero;stroke:none"/></g></g></g><g id="g40"><g id="g42" clip-path="url(#clipPath44)"><g id="g48" transform="translate(11.5,10)"><path id="path50" d="M 0,0 C -0.827,0 -1.5,0.674 -1.5,1.5 -1.5,2.328 -0.827,3 0,3 0.827,3 1.5,2.328 1.5,1.5 1.5,0.674 0.827,0 0,0" style="fill:#f0eff1;fill-opacity:1;fill-rule:nonzero;stroke:none"/></g></g></g><g id="g52" transform="translate(13.4492,2.8369)"><path id="path54" d="m 0,0 1.551,1.163 -1.901,0 -0.599,2 -0.6,-2 -1.9,0 1.551,-1.163 -0.551,-1.837 1.5,1.125 1.5,-1.125 L 0,0 Z" style="fill:#424242;fill-opacity:1;fill-rule:nonzero;stroke:none"/></g></g></svg>