<svg xmlns="http://www.w3.org/2000/svg" xmlns:svg="http://www.w3.org/2000/svg" id="svg2" width="20" height="20" version="1.1" viewBox="0 0 20 20" xml:space="preserve"><metadata id="metadata8"/><defs id="defs6"><clipPath id="clipPath16" clipPathUnits="userSpaceOnUse"><path id="path18" d="M 0,16 16,16 16,0 0,0 0,16 Z"/></clipPath><clipPath id="clipPath32" clipPathUnits="userSpaceOnUse"><path id="path34" d="M 0,16 16,16 16,0 0,0 0,16 Z"/></clipPath><clipPath id="clipPath48" clipPathUnits="userSpaceOnUse"><path id="path50" d="M 0,16 16,16 16,0 0,0 0,16 Z"/></clipPath><clipPath id="clipPath60" clipPathUnits="userSpaceOnUse"><path id="path62" d="M 0,16 16,16 16,0 0,0 0,16 Z"/></clipPath></defs><g id="g10" transform="matrix(1.25,0,0,-1.25,0,20)"><g id="g12"><g id="g14" clip-path="url(#clipPath16)"><g id="g20" transform="translate(13,9)"><path id="path22" d="M 0,0 0,2 1,2 1,5 -5.5,5 C -6.069,6.195 -7.131,7 -8.5,7 -10.43,7 -12,5.43 -12,3.5 -12,2.961 -11.867,2.457 -11.648,2 L -13,2 l 0,-7 8,0 0,5 5,0 z" style="fill:#f6f6f6;fill-opacity:1;fill-rule:nonzero;stroke:none"/></g><g id="g24" transform="translate(12,7.9995)"><path id="path26" d="m 0,0 c -2.206,0 -4,-1.794 -4,-4 0,-2.207 1.794,-4 4,-4 2.206,0 4,1.793 4,4 0,2.206 -1.794,4 -4,4" style="fill:#f6f6f6;fill-opacity:1;fill-rule:nonzero;stroke:none"/></g></g></g><g id="g28"><g id="g30" clip-path="url(#clipPath32)"><g id="g36" transform="translate(7,13)"><path id="path38" d="M 0,0 C -0.231,1.143 -1.291,2 -2.5,2 -3.881,2 -5,0.881 -5,-0.5 -5,-1.065 -4.806,-1.581 -4.488,-2 L -2.5,-2 C -3.328,-2 -4,-1.328 -4,-0.5 -4,0.33 -3.328,1 -2.5,1 -1.672,1 -1,0.33 -1,-0.5 -1,-1.328 -1.672,-2 -2.5,-2 l 2.026,0 c 0.229,0.292 0.399,0.629 0.474,1 l 2,0 0,-2 1,0 0,2 1,0 0,-2 1,0 0,2 1,0 0,1 -6,0 z" style="fill:#424242;fill-opacity:1;fill-rule:nonzero;stroke:none"/></g><path id="path40" d="M 2,8 6,8 6,7 2,7 2,8 Z M 1,5 7,5 7,10 1,10 1,5 Z" style="fill:#424242;fill-opacity:1;fill-rule:nonzero;stroke:none"/></g></g><path id="path42" d="m 2,7 4.001,0 0,1 L 2,8 2,7 Z" style="fill:#f0eff1;fill-opacity:1;fill-rule:nonzero;stroke:none"/><g id="g44"><g id="g46" clip-path="url(#clipPath48)"><g id="g52" transform="translate(12,1.7832)"><path id="path54" d="M 0,0 C -0.47,0 -0.904,0.148 -1.264,0.398 L 1.818,3.48 C 2.068,3.121 2.217,2.686 2.217,2.217 2.217,0.994 1.223,0 0,0 m -1.587,0.672 0.042,-0.043 c -0.013,0.016 -0.027,0.029 -0.042,0.043 m -0.63,1.545 c 0,1.222 0.994,2.217 2.217,2.217 0.47,0 0.904,-0.149 1.264,-0.399 L -1.818,0.953 c -0.25,0.36 -0.399,0.793 -0.399,1.264 M 1.587,3.762 1.545,3.803 C 1.558,3.789 1.572,3.773 1.587,3.762 M 0,5.217 c -1.654,0 -3,-1.346 -3,-3 0,-1.654 1.346,-3 3,-3 1.654,0 3,1.346 3,3 0,1.654 -1.346,3 -3,3" style="fill:#424242;fill-opacity:1;fill-rule:nonzero;stroke:none"/></g></g></g><g id="g56"><g id="g58" clip-path="url(#clipPath60)"><g id="g64" transform="translate(9.7832,4)"><path id="path66" d="m 0,0 c 0,1.223 0.994,2.217 2.217,2.217 0.47,0 0.904,-0.149 1.263,-0.399 L 0.398,-1.264 C 0.148,-0.904 0,-0.471 0,0" style="fill:#f0eff1;fill-opacity:1;fill-rule:nonzero;stroke:none"/></g><g id="g68" transform="translate(12,1.7832)"><path id="path70" d="M 0,0 C -0.47,0 -0.904,0.148 -1.264,0.398 L 1.818,3.48 C 2.068,3.121 2.217,2.686 2.217,2.217 2.217,0.994 1.223,0 0,0" style="fill:#f0eff1;fill-opacity:1;fill-rule:nonzero;stroke:none"/></g></g></g></g></svg>