<svg xmlns="http://www.w3.org/2000/svg" xmlns:svg="http://www.w3.org/2000/svg" id="svg2" width="20" height="20" version="1.1" viewBox="0 0 20 20" xml:space="preserve"><metadata id="metadata8"/><defs id="defs6"><clipPath id="clipPath16" clipPathUnits="userSpaceOnUse"><path id="path18" d="M 0,16 16,16 16,0 0,0 0,16 Z"/></clipPath><clipPath id="clipPath32" clipPathUnits="userSpaceOnUse"><path id="path34" d="M 0,16 16,16 16,0 0,0 0,16 Z"/></clipPath></defs><g id="g10" transform="matrix(1.25,0,0,-1.25,0,20)"><g id="g12"><g id="g14" clip-path="url(#clipPath16)"><g id="g20" transform="translate(7.5,14)"><path id="path22" d="m 0,0 c -0.569,1.195 -1.631,2 -3,2 -1.93,0 -3.5,-1.57 -3.5,-3.5 0,-0.539 0.133,-1.043 0.352,-1.5 l -1.352,0 0,-7 8,0 0,5 5,0 0,2 1,0 0,3 L 0,0 Z" style="fill:#f6f6f6;fill-opacity:1;fill-rule:nonzero;stroke:none"/></g><g id="g24" transform="translate(14.6074,2.4551)"><path id="path26" d="m 0,0 1.393,1.045 0,1.5 -2.157,0 -0.599,2 -1.489,0 -0.599,-2 -2.156,0 0,-1.5 1.392,-1.045 -0.736,-2.455 1.677,0 1.167,0.875 1.167,-0.875 1.676,0 L 0,0 Z" style="fill:#f6f6f6;fill-opacity:1;fill-rule:nonzero;stroke:none"/></g></g></g><g id="g28"><g id="g30" clip-path="url(#clipPath32)"><g id="g36" transform="translate(7,13)"><path id="path38" d="M 0,0 C -0.231,1.143 -1.291,2 -2.5,2 -3.881,2 -5,0.881 -5,-0.5 -5,-1.065 -4.806,-1.581 -4.488,-2 L -2.5,-2 C -3.328,-2 -4,-1.328 -4,-0.5 -4,0.33 -3.328,1 -2.5,1 -1.672,1 -1,0.33 -1,-0.5 -1,-1.328 -1.672,-2 -2.5,-2 l 2.026,0 c 0.229,0.292 0.399,0.629 0.474,1 l 2,0 0,-2 1,0 0,2 1,0 0,-2 1,0 0,2 1,0 0,1 -6,0 z" style="fill:#424242;fill-opacity:1;fill-rule:nonzero;stroke:none"/></g><path id="path40" d="M 2,8 6,8 6,7 2,7 2,8 Z M 1,5 7,5 7,10 1,10 1,5 Z" style="fill:#424242;fill-opacity:1;fill-rule:nonzero;stroke:none"/><g id="g42" transform="translate(13.4492,2.8369)"><path id="path44" d="m 0,0 1.551,1.163 -1.901,0 -0.599,2 -0.6,-2 -1.9,0 1.551,-1.163 -0.551,-1.837 1.5,1.125 1.5,-1.125 L 0,0 Z" style="fill:#424242;fill-opacity:1;fill-rule:nonzero;stroke:none"/></g></g></g><path id="path46" d="m 2,7 4.001,0 0,1 L 2,8 2,7 Z" style="fill:#f0eff1;fill-opacity:1;fill-rule:nonzero;stroke:none"/></g></svg>