<svg xmlns="http://www.w3.org/2000/svg" xmlns:svg="http://www.w3.org/2000/svg" id="svg2" width="20" height="20" version="1.1" viewBox="0 0 20 20" xml:space="preserve"><metadata id="metadata8"/><defs id="defs6"><clipPath id="clipPath16" clipPathUnits="userSpaceOnUse"><path id="path18" d="M 0,16 16,16 16,0 0,0 0,16 Z"/></clipPath><clipPath id="clipPath32" clipPathUnits="userSpaceOnUse"><path id="path34" d="M 0,16 16,16 16,0 0,0 0,16 Z"/></clipPath></defs><g id="g10" transform="matrix(1.25,0,0,-1.25,0,20)"><g id="g12"><g id="g14" clip-path="url(#clipPath16)"><g id="g20" transform="translate(13,9)"><path id="path22" d="M 0,0 0,2 1,2 1,5 -6.5,5 C -7.069,6.195 -8.131,7 -9.5,7 -11.43,7 -13,5.43 -13,3.5 -13,1.57 -11.43,0 -9.5,0 c 1.369,0 2.431,0.805 3,2 L -5,2 -5,0 0,0 Z" style="fill:#f6f6f6;fill-opacity:1;fill-rule:nonzero;stroke:none"/></g><g id="g24" transform="translate(16,5)"><path id="path26" d="m 0,0 -2.156,0 -0.6,2 -1.488,0 -0.6,-2 L -7,0 -7,-1.5 -5.607,-2.545 -6.344,-5 -4.667,-5 -3.5,-4.125 -2.333,-5 -0.656,-5 -1.393,-2.545 0,-1.5 0,0 Z" style="fill:#f6f6f6;fill-opacity:1;fill-rule:nonzero;stroke:none"/></g></g></g><g id="g28"><g id="g30" clip-path="url(#clipPath32)"><g id="g36" transform="translate(3.5,11)"><path id="path38" d="M 0,0 C -0.828,0 -1.5,0.672 -1.5,1.5 -1.5,2.33 -0.828,3 0,3 0.828,3 1.5,2.33 1.5,1.5 1.5,0.672 0.828,0 0,0 M 2.5,2 C 2.269,3.143 1.209,4 0,4 -1.381,4 -2.5,2.881 -2.5,1.5 -2.5,0.119 -1.381,-1 0,-1 c 1.209,0 2.269,0.859 2.5,2 l 3,0 0,-2 1,0 0,2 1,0 0,-2 1,0 0,2 1,0 0,1 -7,0 z" style="fill:#424242;fill-opacity:1;fill-rule:nonzero;stroke:none"/></g></g></g><g id="g40" transform="translate(13.4492,2.8369)"><path id="path42" d="m 0,0 1.551,1.163 -1.901,0 -0.599,2 -0.6,-2 -1.9,0 1.551,-1.163 -0.551,-1.837 1.5,1.125 1.5,-1.125 L 0,0 Z" style="fill:#424242;fill-opacity:1;fill-rule:nonzero;stroke:none"/></g></g></svg>