<svg xmlns="http://www.w3.org/2000/svg" xmlns:svg="http://www.w3.org/2000/svg" id="svg2" width="20" height="20" version="1.1" viewBox="0 0 20 20" xml:space="preserve"><metadata id="metadata8"/><defs id="defs6"><clipPath id="clipPath16" clipPathUnits="userSpaceOnUse"><path id="path18" d="M 0,16 16,16 16,0 0,0 0,16 Z"/></clipPath><clipPath id="clipPath32" clipPathUnits="userSpaceOnUse"><path id="path34" d="M 0,16 16,16 16,0 0,0 0,16 Z"/></clipPath><clipPath id="clipPath48" clipPathUnits="userSpaceOnUse"><path id="path50" d="M 0,16 16,16 16,0 0,0 0,16 Z"/></clipPath></defs><g id="g10" transform="matrix(1.25,0,0,-1.25,0,20)"><g id="g12"><g id="g14" clip-path="url(#clipPath16)"><g id="g20" transform="translate(3.5,9)"><path id="path22" d="m 0,0 c 1.369,0 2.431,0.805 3,2 l 1.5,0 0,-2 5,0 0,2 1,0 0,3 L 3,5 C 2.431,6.195 1.369,7 0,7 -1.93,7 -3.5,5.43 -3.5,3.5 -3.5,1.57 -1.93,0 0,0" style="fill:#f6f6f6;fill-opacity:1;fill-rule:nonzero;stroke:none"/></g><g id="g24" transform="translate(12,7.9995)"><path id="path26" d="m 0,0 c -2.206,0 -4,-1.794 -4,-4 0,-2.207 1.794,-4 4,-4 2.206,0 4,1.793 4,4 0,2.206 -1.794,4 -4,4" style="fill:#f6f6f6;fill-opacity:1;fill-rule:nonzero;stroke:none"/></g></g></g><g id="g28"><g id="g30" clip-path="url(#clipPath32)"><g id="g36" transform="translate(3.5,11)"><path id="path38" d="M 0,0 C -0.828,0 -1.5,0.672 -1.5,1.5 -1.5,2.33 -0.828,3 0,3 0.828,3 1.5,2.33 1.5,1.5 1.5,0.672 0.828,0 0,0 M 2.5,2 C 2.269,3.143 1.209,4 0,4 -1.381,4 -2.5,2.881 -2.5,1.5 -2.5,0.119 -1.381,-1 0,-1 c 1.209,0 2.269,0.859 2.5,2 l 3,0 0,-2 1,0 0,2 1,0 0,-2 1,0 0,2 1,0 0,1 -7,0 z" style="fill:#424242;fill-opacity:1;fill-rule:nonzero;stroke:none"/></g><g id="g40" transform="translate(12,1.7832)"><path id="path42" d="M 0,0 C -0.47,0 -0.904,0.148 -1.264,0.398 L 1.818,3.48 C 2.068,3.121 2.217,2.686 2.217,2.217 2.217,0.994 1.223,0 0,0 m -1.587,0.672 0.042,-0.043 c -0.013,0.016 -0.027,0.029 -0.042,0.043 m -0.63,1.545 c 0,1.222 0.994,2.217 2.217,2.217 0.47,0 0.904,-0.149 1.264,-0.399 L -1.818,0.953 c -0.25,0.36 -0.399,0.793 -0.399,1.264 M 1.587,3.762 1.545,3.803 C 1.558,3.789 1.572,3.773 1.587,3.762 M 0,5.217 c -1.654,0 -3,-1.346 -3,-3 0,-1.654 1.346,-3 3,-3 1.654,0 3,1.346 3,3 0,1.654 -1.346,3 -3,3" style="fill:#424242;fill-opacity:1;fill-rule:nonzero;stroke:none"/></g></g></g><g id="g44"><g id="g46" clip-path="url(#clipPath48)"><g id="g52" transform="translate(9.7832,4)"><path id="path54" d="m 0,0 c 0,1.223 0.994,2.217 2.217,2.217 0.47,0 0.904,-0.149 1.263,-0.399 L 0.398,-1.264 C 0.148,-0.904 0,-0.471 0,0" style="fill:#f0eff1;fill-opacity:1;fill-rule:nonzero;stroke:none"/></g><g id="g56" transform="translate(12,1.7832)"><path id="path58" d="M 0,0 C -0.47,0 -0.904,0.148 -1.264,0.398 L 1.818,3.48 C 2.068,3.121 2.217,2.686 2.217,2.217 2.217,0.994 1.223,0 0,0" style="fill:#f0eff1;fill-opacity:1;fill-rule:nonzero;stroke:none"/></g></g></g></g></svg>