<svg xmlns="http://www.w3.org/2000/svg" xmlns:svg="http://www.w3.org/2000/svg" id="svg2" width="20" height="20" version="1.1" viewBox="0 0 20 20" xml:space="preserve"><metadata id="metadata8"/><defs id="defs6"><clipPath id="clipPath16" clipPathUnits="userSpaceOnUse"><path id="path18" d="M 0,16 16,16 16,0 0,0 0,16 Z"/></clipPath><clipPath id="clipPath30" clipPathUnits="userSpaceOnUse"><path id="path32" d="M 0,16 16,16 16,0 0,0 0,16 Z"/></clipPath></defs><g id="g10" transform="matrix(1.25,0,0,-1.25,0,20)"><g id="g12"><g id="g14" clip-path="url(#clipPath16)"><g id="g20" transform="translate(3.5,9)"><path id="path22" d="m 0,0 c 1.369,0 2.431,0.805 3,2 l 1.5,0 0,-2 5,0 0,2 1,0 0,3 L 3,5 C 2.431,6.195 1.369,7 0,7 -1.93,7 -3.5,5.43 -3.5,3.5 -3.5,1.57 -1.93,0 0,0" style="fill:#f6f6f6;fill-opacity:1;fill-rule:nonzero;stroke:none"/></g><path id="path24" d="M 16,0 9,0 9,7 16,7 16,0 Z" style="fill:#f6f6f6;fill-opacity:1;fill-rule:nonzero;stroke:none"/></g></g><g id="g26"><g id="g28" clip-path="url(#clipPath30)"><g id="g34" transform="translate(3.5,11)"><path id="path36" d="M 0,0 C -0.828,0 -1.5,0.672 -1.5,1.5 -1.5,2.33 -0.828,3 0,3 0.828,3 1.5,2.33 1.5,1.5 1.5,0.672 0.828,0 0,0 M 2.5,2 C 2.269,3.143 1.209,4 0,4 -1.381,4 -2.5,2.881 -2.5,1.5 -2.5,0.119 -1.381,-1 0,-1 c 1.209,0 2.269,0.859 2.5,2 l 3,0 0,-2 1,0 0,2 1,0 0,-2 1,0 0,2 1,0 0,1 -7,0 z" style="fill:#424242;fill-opacity:1;fill-rule:nonzero;stroke:none"/></g></g></g><g id="g38" transform="translate(14,3)"><path id="path40" d="M 0,0 -1,-1 -1,0.5 -2.5,-1 -3,-0.5 -1.5,1 -3,1 -2,2 0,2 0,0 Z m -4,-2 5,0 0,5 -5,0 0,-5 z" style="fill:#424242;fill-opacity:1;fill-rule:nonzero;stroke:none"/></g><g id="g42" transform="translate(14,5)"><path id="path44" d="M 0,0 0,-2 -1,-3 -1,-1.5 -2.5,-3 -3,-2.5 -1.5,-1 -3,-1 -2,0 0,0 Z" style="fill:#f0eff1;fill-opacity:1;fill-rule:nonzero;stroke:none"/></g></g></svg>