<svg xmlns="http://www.w3.org/2000/svg" xmlns:svg="http://www.w3.org/2000/svg" id="svg2" width="20" height="20" version="1.1" viewBox="0 0 20 20" xml:space="preserve"><metadata id="metadata8"/><defs id="defs6"><clipPath id="clipPath16" clipPathUnits="userSpaceOnUse"><path id="path18" d="M 0,16 16,16 16,0 0,0 0,16 Z"/></clipPath><clipPath id="clipPath24" clipPathUnits="userSpaceOnUse"><path id="path26" d="M 0,16 16,16 16,0 0,0 0,16 Z"/></clipPath></defs><g id="g10" transform="matrix(1.25,0,0,-1.25,0,20)"><g id="g12"><g id="g14" clip-path="url(#clipPath16)"><g id="g20"><g id="g28"><g style="opacity:0" id="g30" clip-path="url(#clipPath24)"><path id="path32" d="M 16,0 0,0 0,16 16,16 16,0 Z" style="fill:#f6f6f6;fill-opacity:1;fill-rule:nonzero;stroke:none"/></g></g></g></g></g><g id="g34" transform="translate(5.0004,16.0002)"><path id="path36" d="m 0,0 0,-5.413 -4.833,-2.444 0,-5.569 4.086,-2.574 1.928,0 3.574,2.619 0,1.38 6.245,0 L 11,0 0,0 Z" style="fill:#f6f6f6;fill-opacity:1;fill-rule:nonzero;stroke:none"/></g><path id="path38" d="m 10,5 1,0 0,1 -1,0 0,-1 z" style="fill:#424242;fill-opacity:1;fill-rule:nonzero;stroke:none"/><path id="path40" d="m 12,5 1,0 0,1 -1,0 0,-1 z" style="fill:#424242;fill-opacity:1;fill-rule:nonzero;stroke:none"/><path id="path42" d="m 14,5 1,0 0,1 -1,0 0,-1 z" style="fill:#424242;fill-opacity:1;fill-rule:nonzero;stroke:none"/><g id="g44" transform="translate(6,15)"><path id="path46" d="M 0,0 0,-4.888 1,-5.415 1,-1 8,-1 8,-8 9,-8 9,0 0,0 Z" style="fill:#424242;fill-opacity:1;fill-rule:nonzero;stroke:none"/></g><g id="g48" transform="translate(8.1904,3.4014)"><path id="path50" d="m 0,0 -2.576,-1.856 0,3.462 L 0,3.173 0,0 Z m -3.22,-1.963 0,-0.016 -0.009,0.008 -0.008,-0.008 0,0.016 -3.167,2.065 0,3.319 3.209,-1.793 0,-3.573 -0.025,-0.018 z m 0.025,7.374 3.07,-1.513 -2.864,-1.719 -3.095,1.765 2.889,1.467 z m 3.759,-5.686 0,4.402 -3.713,1.959 -3.874,-1.959 0,-4.402 4.081,-2.571 3.506,2.571 z" style="fill:#652d90;fill-opacity:1;fill-rule:nonzero;stroke:none"/></g><g id="g52" transform="translate(4.9951,8.812)"><path id="path54" d="M 0,0 3.07,-1.513 0.206,-3.232 -2.889,-1.467 0,0 Z" style="fill:#f0eff1;fill-opacity:1;fill-rule:nonzero;stroke:none"/></g><g id="g56" transform="translate(4.9951,8.812)"><path id="path58" d="M 0,0 3.07,-1.513 0.206,-3.232 -2.889,-1.467 0,0 Z" style="fill:none;stroke:#652d90;stroke-width:.15000001;stroke-linecap:butt;stroke-linejoin:miter;stroke-miterlimit:10;stroke-dasharray:none;stroke-opacity:1"/></g><g id="g60" transform="translate(4.9707,1.4385)"><path id="path62" d="m 0,0 0,-0.016 -0.01,0.008 -0.008,-0.008 0,0.016 -3.167,2.064 0,3.32 3.209,-1.793 0,-3.573 L 0,0 Z" style="fill:#f0eff1;fill-opacity:1;fill-rule:nonzero;stroke:none"/></g><g id="g64" transform="translate(4.9707,1.4385)"><path id="path66" d="m 0,0 0,-0.016 -0.01,0.008 -0.008,-0.008 0,0.016 -3.167,2.064 0,3.32 3.209,-1.793 0,-3.573 L 0,0 Z" style="fill:none;stroke:#652d90;stroke-width:.15000001;stroke-linecap:butt;stroke-linejoin:miter;stroke-miterlimit:10;stroke-dasharray:none;stroke-opacity:1"/></g><g id="g68" transform="translate(8.1904,3.4014)"><path id="path70" d="m 0,0 -2.576,-1.856 0,3.462 L 0,3.173 0,0 Z" style="fill:#f0eff1;fill-opacity:1;fill-rule:nonzero;stroke:none"/></g><g id="g72" transform="translate(8.1904,3.4014)"><path id="path74" d="m 0,0 -2.576,-1.856 0,3.462 L 0,3.173 0,0 Z" style="fill:none;stroke:#652d90;stroke-width:.15000001;stroke-linecap:butt;stroke-linejoin:miter;stroke-miterlimit:10;stroke-dasharray:none;stroke-opacity:1"/></g><g id="g76" transform="translate(7,14)"><path id="path78" d="M 0,0 0,-4.415 2.755,-5.868 2.755,-7 7,-7 7,0 0,0 Z" style="fill:#f0eff1;fill-opacity:1;fill-rule:nonzero;stroke:none"/></g></g></svg>