<svg xmlns="http://www.w3.org/2000/svg" xmlns:svg="http://www.w3.org/2000/svg" id="svg2" width="20" height="20" version="1.1" viewBox="0 0 20 20" xml:space="preserve"><metadata id="metadata8"/><defs id="defs6"><clipPath id="clipPath16" clipPathUnits="userSpaceOnUse"><path id="path18" d="M 0,16 16,16 16,0 0,0 0,16 Z"/></clipPath><clipPath id="clipPath24" clipPathUnits="userSpaceOnUse"><path id="path26" d="M 0,16 16,16 16,0 0,0 0,16 Z"/></clipPath></defs><g id="g10" transform="matrix(1.25,0,0,-1.25,0,20)"><g id="g12"><g id="g14" clip-path="url(#clipPath16)"><g id="g20"><g id="g28"><g style="opacity:0" id="g30" clip-path="url(#clipPath24)"><path id="path32" d="M 16,0 0,0 0,16 16,16 16,0 Z" style="fill:#f6f6f6;fill-opacity:1;fill-rule:nonzero;stroke:none"/></g></g></g></g></g><g id="g34" transform="translate(0.167,5.5742)"><path id="path36" d="m 0,0 0,5.569 4.884,2.47 4.704,-2.481 0,-5.513 L 5.124,-3.228 0,0 Z" style="fill:#f6f6f6;fill-opacity:1;fill-rule:nonzero;stroke:none"/></g><g id="g38" transform="translate(8.1904,6.4014)"><path id="path40" d="m 0,0 -2.576,-1.856 0,3.462 L 0,3.173 0,0 Z m -3.22,-1.963 0,-0.016 -0.009,0.008 -0.008,-0.008 0,0.016 -3.167,2.065 0,3.318 3.209,-1.792 0,-3.573 -0.025,-0.018 z m 0.025,7.374 3.07,-1.513 -2.864,-1.719 -3.095,1.765 2.889,1.467 z m 3.759,-5.686 0,4.402 -3.713,1.959 -3.874,-1.959 0,-4.402 4.081,-2.571 3.506,2.571 z" style="fill:#652d90;fill-opacity:1;fill-rule:nonzero;stroke:none"/></g><g id="g42" transform="translate(4.9951,11.812)"><path id="path44" d="M 0,0 3.07,-1.513 0.206,-3.232 -2.889,-1.467 0,0 Z" style="fill:#f0eff1;fill-opacity:1;fill-rule:nonzero;stroke:none"/></g><g id="g46" transform="translate(4.9951,11.812)"><path id="path48" d="M 0,0 3.07,-1.513 0.206,-3.232 -2.889,-1.467 0,0 Z" style="fill:none;stroke:#652d90;stroke-width:.15000001;stroke-linecap:butt;stroke-linejoin:miter;stroke-miterlimit:10;stroke-dasharray:none;stroke-opacity:1"/></g><g id="g50" transform="translate(4.9707,4.4385)"><path id="path52" d="m 0,0 0,-0.016 -0.01,0.008 -0.008,-0.008 0,0.016 -3.167,2.064 0,3.319 3.209,-1.792 0,-3.573 L 0,0 Z" style="fill:#f0eff1;fill-opacity:1;fill-rule:nonzero;stroke:none"/></g><g id="g54" transform="translate(4.9707,4.4385)"><path id="path56" d="m 0,0 0,-0.016 -0.01,0.008 -0.008,-0.008 0,0.016 -3.167,2.064 0,3.319 3.209,-1.792 0,-3.573 L 0,0 Z" style="fill:none;stroke:#652d90;stroke-width:.15000001;stroke-linecap:butt;stroke-linejoin:miter;stroke-miterlimit:10;stroke-dasharray:none;stroke-opacity:1"/></g><g id="g58" transform="translate(8.1904,6.4014)"><path id="path60" d="m 0,0 -2.576,-1.856 0,3.462 L 0,3.173 0,0 Z" style="fill:#f0eff1;fill-opacity:1;fill-rule:nonzero;stroke:none"/></g><g id="g62" transform="translate(8.1904,6.4014)"><path id="path64" d="m 0,0 -2.576,-1.856 0,3.462 L 0,3.173 0,0 Z" style="fill:none;stroke:#652d90;stroke-width:.15000001;stroke-linecap:butt;stroke-linejoin:miter;stroke-miterlimit:10;stroke-dasharray:none;stroke-opacity:1"/></g></g></svg>