<svg xmlns="http://www.w3.org/2000/svg" xmlns:svg="http://www.w3.org/2000/svg" id="svg2" width="20" height="20" version="1.1" viewBox="0 0 20 20" xml:space="preserve"><metadata id="metadata8"/><defs id="defs6"><clipPath id="clipPath16" clipPathUnits="userSpaceOnUse"><path id="path18" d="M 0,16 16,16 16,0 0,0 0,16 Z"/></clipPath><clipPath id="clipPath32" clipPathUnits="userSpaceOnUse"><path id="path34" d="M 0,16 16,16 16,0 0,0 0,16 Z"/></clipPath><clipPath id="clipPath44" clipPathUnits="userSpaceOnUse"><path id="path46" d="M 0,16 16,16 16,0 0,0 0,16 Z"/></clipPath><clipPath id="clipPath56" clipPathUnits="userSpaceOnUse"><path id="path58" d="M 0,16 16,16 16,0 0,0 0,16 Z"/></clipPath></defs><g id="g10" transform="matrix(1.25,0,0,-1.25,0,20)"><g id="g12"><g id="g14" clip-path="url(#clipPath16)"><g id="g20" transform="translate(12,8)"><path id="path22" d="m 0,0 0,8 -12,0 0,-11 8.142,0 C -3.941,-3.321 -4,-3.652 -4,-4 c 0,-2.206 1.794,-4 4,-4 2.206,0 4,1.794 4,4 0,2.206 -1.794,4 -4,4" style="fill:#f6f6f6;fill-opacity:1;fill-rule:nonzero;stroke:none"/></g></g></g><path id="path24" d="m 11,15 -4,0 0,-4 4,0 0,4 z" style="fill:#652d90;fill-opacity:1;fill-rule:nonzero;stroke:none"/><path id="path26" d="m 5,15 -4,0 0,-4 4,0 0,4 z" style="fill:#652d90;fill-opacity:1;fill-rule:nonzero;stroke:none"/><g id="g28"><g id="g30" clip-path="url(#clipPath32)"><g id="g36" transform="translate(11,7.8579)"><path id="path38" d="m 0,0 0,2.142 -10,0 0,-4 7.556,0 C -1.913,-0.949 -1.043,-0.271 0,0" style="fill:#652d90;fill-opacity:1;fill-rule:nonzero;stroke:none"/></g></g></g><g id="g40"><g id="g42" clip-path="url(#clipPath44)"><g id="g48" transform="translate(12,1.7832)"><path id="path50" d="M 0,0 C -0.47,0 -0.904,0.148 -1.264,0.398 L 1.818,3.48 C 2.068,3.121 2.217,2.687 2.217,2.217 2.217,0.994 1.223,0 0,0 M -1.587,0.672 -1.545,0.63 c -0.013,0.015 -0.027,0.029 -0.042,0.042 m -0.63,1.545 c 0,1.222 0.994,2.217 2.217,2.217 0.47,0 0.904,-0.149 1.264,-0.399 L -1.818,0.953 c -0.25,0.36 -0.399,0.794 -0.399,1.264 M 1.587,3.762 1.545,3.804 C 1.558,3.789 1.572,3.774 1.587,3.762 M 0,5.217 c -1.654,0 -3,-1.346 -3,-3 0,-1.654 1.346,-3 3,-3 1.654,0 3,1.346 3,3 0,1.654 -1.346,3 -3,3" style="fill:#424242;fill-opacity:1;fill-rule:nonzero;stroke:none"/></g></g></g><g id="g52"><g id="g54" clip-path="url(#clipPath56)"><g id="g60" transform="translate(9.7832,4)"><path id="path62" d="m 0,0 c 0,1.223 0.994,2.217 2.217,2.217 0.47,0 0.904,-0.149 1.263,-0.399 L 0.398,-1.264 C 0.148,-0.904 0,-0.47 0,0" style="fill:#f0eff1;fill-opacity:1;fill-rule:nonzero;stroke:none"/></g><g id="g64" transform="translate(12,1.7832)"><path id="path66" d="M 0,0 C -0.47,0 -0.904,0.148 -1.264,0.398 L 1.818,3.48 C 2.068,3.121 2.217,2.687 2.217,2.217 2.217,0.994 1.223,0 0,0" style="fill:#f0eff1;fill-opacity:1;fill-rule:nonzero;stroke:none"/></g></g></g></g></svg>