<svg xmlns="http://www.w3.org/2000/svg" xmlns:svg="http://www.w3.org/2000/svg" id="svg2" width="20" height="20" version="1.1" viewBox="0 0 20 20" xml:space="preserve"><metadata id="metadata8"/><g id="g10" transform="matrix(1.25,0,0,-1.25,0,20)"><g id="g12" transform="translate(0,16.0002)"><path id="path14" d="m 0,0 0,-11 9,0 0,-5 7,0 0,7 -4,0 0,9 -12,0 z" style="fill:#f6f6f6;fill-opacity:1;fill-rule:nonzero;stroke:none"/></g><path id="path16" d="m 5,15 -4,0 0,-4 4,0 0,4 z" style="fill:#652d90;fill-opacity:1;fill-rule:nonzero;stroke:none"/><path id="path18" d="m 11,15 -4,0 0,-4 4,0 0,4 z" style="fill:#652d90;fill-opacity:1;fill-rule:nonzero;stroke:none"/><g id="g20" transform="translate(9,7)"><path id="path22" d="m 0,0 2,0 0,3 -10,0 0,-4 8,0 0,1 z" style="fill:#652d90;fill-opacity:1;fill-rule:nonzero;stroke:none"/></g><g id="g24" transform="translate(14,3)"><path id="path26" d="M 0,0 -1,-1 -1,0.5 -2.5,-1 -3,-0.5 -1.5,1 -3,1 -2,2 0,2 0,0 Z m -4,-2 5,0 0,5 -5,0 0,-5 z" style="fill:#424242;fill-opacity:1;fill-rule:nonzero;stroke:none"/></g><g id="g28" transform="translate(14,5)"><path id="path30" d="M 0,0 0,-2 -1,-3 -1,-1.5 -2.5,-3 -3,-2.5 -1.5,-1 -3,-1 -2,0 0,0 Z" style="fill:#f0eff1;fill-opacity:1;fill-rule:nonzero;stroke:none"/></g></g></svg>