<svg xmlns="http://www.w3.org/2000/svg" xmlns:svg="http://www.w3.org/2000/svg" id="svg2" width="20" height="20" version="1.1" viewBox="0 0 20 20" xml:space="preserve"><metadata id="metadata8"/><defs id="defs6"><clipPath id="clipPath16" clipPathUnits="userSpaceOnUse"><path id="path18" d="M 0,16 16,16 16,0 0,0 0,16 Z"/></clipPath><clipPath id="clipPath28" clipPathUnits="userSpaceOnUse"><path id="path30" d="M 0,16 16,16 16,0 0,0 0,16 Z"/></clipPath><clipPath id="clipPath38" clipPathUnits="userSpaceOnUse"><path id="path40" d="M 0,16 16,16 16,0 0,0 0,16 Z"/></clipPath></defs><g id="g10" transform="matrix(1.25,0,0,-1.25,0,20)"><g id="g12"><g id="g14" clip-path="url(#clipPath16)"><g id="g20" transform="translate(16,4.5)"><path id="path22" d="m 0,0 c 0,-2.485 -2.015,-4.5 -4.5,-4.5 -2.314,0 -4.198,1.753 -4.449,4 l -7.051,0 0,12 12,0 0,-7.05 C -1.753,4.198 0,2.314 0,0" style="fill:#f6f6f6;fill-opacity:1;fill-rule:nonzero;stroke:none"/></g></g></g><g id="g24"><g id="g26" clip-path="url(#clipPath28)"><path id="path32" d="m 5,15 -4,0 0,-4 4,0 0,4 z m 6,0 -4,0 0,-4 4,0 0,4 z M 7.051,5 1,5 1,9 11,9 11,8.95 C 8.92,8.716 7.283,7.081 7.051,5" style="fill:#424242;fill-opacity:1;fill-rule:nonzero;stroke:none"/></g></g><g id="g34"><g id="g36" clip-path="url(#clipPath38)"><g id="g42" transform="translate(13.3535,3.3535)"><path id="path44" d="M 0,0 -0.707,-0.707 -1.854,0.439 -3,-0.707 -3.707,0 -2.561,1.146 -3.707,2.293 -3,3 -1.854,1.854 -0.707,3 0,2.293 -1.146,1.146 0,0 Z m -1.854,4.646 c -1.932,0 -3.5,-1.567 -3.5,-3.5 0,-1.932 1.568,-3.5 3.5,-3.5 1.933,0 3.5,1.568 3.5,3.5 0,1.933 -1.567,3.5 -3.5,3.5" style="fill:#e51400;fill-opacity:1;fill-rule:nonzero;stroke:none"/></g></g></g><g id="g46" transform="translate(12.6465,6.3535)"><path id="path48" d="M 0,0 -1.146,-1.146 -2.293,0 -3,-0.707 -1.854,-1.854 -3,-3 -2.293,-3.707 -1.146,-2.561 0,-3.707 0.707,-3 -0.439,-1.854 0.707,-0.707 0,0 Z" style="fill:#fff;fill-opacity:1;fill-rule:nonzero;stroke:none"/></g></g></svg>