<svg xmlns="http://www.w3.org/2000/svg" xmlns:svg="http://www.w3.org/2000/svg" id="svg2" width="20" height="20" version="1.1" viewBox="0 0 20 20" xml:space="preserve"><metadata id="metadata8"/><defs id="defs6"><clipPath id="clipPath16" clipPathUnits="userSpaceOnUse"><path id="path18" d="M 0,16 16,16 16,0 0,0 0,16 Z"/></clipPath><clipPath id="clipPath32" clipPathUnits="userSpaceOnUse"><path id="path34" d="M 0,16 16,16 16,0 0,0 0,16 Z"/></clipPath><clipPath id="clipPath46" clipPathUnits="userSpaceOnUse"><path id="path48" d="M 0,16 16,16 16,0 0,0 0,16 Z"/></clipPath></defs><g id="g10" transform="matrix(1.25,0,0,-1.25,0,20)"><g id="g12"><g id="g14" clip-path="url(#clipPath16)"><g id="g20" transform="translate(12.5938,7.9688)"><path id="path22" d="m 0,0 c -0.212,0 -0.406,-0.017 -0.594,-0.04 l 0,8.072 -12,0 0,-11.001 9.087,0 c -0.103,-0.58 -0.082,-1.015 -0.082,-1.015 l -0.005,-3.985 7,0 0,3.993 C 3.406,-0.967 1.532,0 0,0" style="fill:#f6f6f6;fill-opacity:1;fill-rule:nonzero;stroke:none"/></g></g></g><path id="path24" d="m 11,15 -4,0 0,-4 4,0 0,4 z" style="fill:#652d90;fill-opacity:1;fill-rule:nonzero;stroke:none"/><path id="path26" d="m 5,15 -4,0 0,-4 4,0 0,4 z" style="fill:#652d90;fill-opacity:1;fill-rule:nonzero;stroke:none"/><g id="g28"><g id="g30" clip-path="url(#clipPath32)"><g id="g36" transform="translate(9.3809,6)"><path id="path38" d="m 0,0 c 0.144,0.335 0.347,0.666 0.619,0.961 l 0,0.039 0.033,0 c 0.254,0.265 0.575,0.492 0.967,0.662 l 0,2.338 -10,0 0,-4 8,0 L 0,0 Z" style="fill:#652d90;fill-opacity:1;fill-rule:nonzero;stroke:none"/></g></g></g><path id="path40" d="m 12,2 1,0 0,0.959 -1,0 L 12,2 Z" style="fill:#f0eff1;fill-opacity:1;fill-rule:nonzero;stroke:none"/><g id="g42"><g id="g44" clip-path="url(#clipPath46)"><g id="g50" transform="translate(11.0186,4.4375)"><path id="path52" d="M 0,0 C 0.06,0.729 0.334,1.541 1.575,1.541 2.824,1.541 2.966,0.746 2.979,0 L 3.945,0 C 3.86,1.119 3.802,2.531 1.575,2.531 -0.82,2.531 -0.87,1.125 -1.001,0 L 0,0 Z" style="fill:#424242;fill-opacity:1;fill-rule:nonzero;stroke:none"/></g><path id="path54" d="m 13,2 -1,0 0,1 1,0 0,-1 z m 1,2 -3,0 -1,0 0,-3 5,0 0,3 -1,0 z" style="fill:#424242;fill-opacity:1;fill-rule:nonzero;stroke:none"/><path id="path56" d="m 12,2 1,0 0,1 -1,0 0,-1 z" style="fill:#f0eff1;fill-opacity:1;fill-rule:nonzero;stroke:none"/></g></g></g></svg>