<svg xmlns="http://www.w3.org/2000/svg" xmlns:svg="http://www.w3.org/2000/svg" id="svg2" width="20" height="20" version="1.1" viewBox="0 0 20 20" xml:space="preserve"><metadata id="metadata8"/><defs id="defs6"><clipPath id="clipPath16" clipPathUnits="userSpaceOnUse"><path id="path18" d="M 0,16 16,16 16,0 0,0 0,16 Z"/></clipPath><clipPath id="clipPath24" clipPathUnits="userSpaceOnUse"><path id="path26" d="M 0,16 16,16 16,0 0,0 0,16 Z"/></clipPath><clipPath id="clipPath38" clipPathUnits="userSpaceOnUse"><path id="path40" d="M 0,16 16,16 16,0 0,0 0,16 Z"/></clipPath><clipPath id="clipPath60" clipPathUnits="userSpaceOnUse"><path id="path62" d="M 0,16 16,16 16,0 0,0 0,16 Z"/></clipPath></defs><g id="g10" transform="matrix(1.25,0,0,-1.25,0,20)"><g id="g12"><g id="g14" clip-path="url(#clipPath16)"><g id="g20"><g id="g28"><g style="opacity:0" id="g30" clip-path="url(#clipPath24)"><path id="path32" d="M 16,0 0,0 0,16 16,16 16,0 Z" style="fill:#f6f6f6;fill-opacity:1;fill-rule:nonzero;stroke:none"/></g></g></g><g id="g34"><g id="g42"><g style="opacity:0" id="g44" clip-path="url(#clipPath38)"><path id="path46" d="M 16,0 0,0 0,16 16,16 16,0 Z" style="fill:#f6f6f6;fill-opacity:1;fill-rule:nonzero;stroke:none"/></g></g></g><g id="g48" transform="translate(1,13)"><path id="path50" d="m 0,0 c 0,0 0.004,-0.965 0,-1 l -1,-1 0,-2 1,-1 C 0.003,-5.029 0,-6 0,-6 0,-7.709 1.317,-8.979 3.286,-9 L 4,-9 4,-6 3,-6 c -10e-4,0.021 0,1 0,1 0,0.537 -0.741,1.613 -1,2 0.259,0.389 1,1.467 1,2 L 3,0 4,0 4,3 3,3 C 1.031,2.979 0,1.723 0,0" style="fill:#f6f6f6;fill-opacity:1;fill-rule:nonzero;stroke:none"/></g><g id="g52" transform="translate(16,5)"><path id="path54" d="m 0,0 -2.156,0 -0.6,2 -1.488,0 -0.6,-2 -0.817,0 C -5.23,0.522 -5,1.21 -5,2 c 0,0 -0.003,0.971 0,1 l 1,1 0,2 -1,1 c -0.004,0.035 0,1 0,1 0,1.723 -1.031,2.979 -3,3 l -1,0 0,-3 1,0 0,-1 C -8,6.467 -7.259,5.389 -7,5 -7.259,4.613 -8,3.537 -8,3 -8,3 -7.999,2.021 -8,2 l -1,0 0,-3 1,0 c 0.371,0.004 0.696,0.065 1,0.152 L -7,-1.5 -5.607,-2.545 -6.344,-5 -4.667,-5 -3.5,-4.125 -2.333,-5 -0.656,-5 -1.393,-2.545 0,-1.5 0,0 Z" style="fill:#f6f6f6;fill-opacity:1;fill-rule:nonzero;stroke:none"/></g></g></g><g id="g56"><g id="g58" clip-path="url(#clipPath60)"><g id="g64" transform="translate(3,7)"><path id="path66" d="m 0,0 0,1 c 0,0.834 -0.496,1.738 -1,2 0.504,0.27 1,1.168 1,2 L 0,6 C 0,6.84 0.584,7 1,7 L 1,8 C -1.083,8 -1,6.834 -1,6 L -1,5 C -1,4.031 -1.703,4.02 -2,4 l 0,-2 c 0.322,-0.02 1,-0.053 1,-1 l 0,-1 c 0,-0.834 -0.083,-2 2,-2 l 0,1 C 0.167,-1 0,0 0,0 M 6,0 6,1 C 6,1.834 6.496,2.738 7,3 6.496,3.27 6,4.168 6,5 L 6,6 C 6,6.84 5.416,7 5,7 L 5,8 C 7.083,8 7,6.834 7,6 L 7,5 C 7,4.031 7.703,4.02 8,4 L 8,2 C 7.678,1.98 7,1.947 7,1 L 7,0 C 7,-0.834 7.083,-2 5,-2 l 0,1 c 0.833,0 1,1 1,1" style="fill:#424242;fill-opacity:1;fill-rule:nonzero;stroke:none"/></g><g id="g68" transform="translate(13.4492,2.8369)"><path id="path70" d="m 0,0 1.551,1.163 -1.901,0 -0.599,2 -0.6,-2 -1.9,0 1.551,-1.163 -0.551,-1.837 1.5,1.125 1.5,-1.125 L 0,0 Z" style="fill:#424242;fill-opacity:1;fill-rule:nonzero;stroke:none"/></g></g></g></g></svg>