<svg xmlns="http://www.w3.org/2000/svg" xmlns:svg="http://www.w3.org/2000/svg" id="svg2" width="20" height="20" version="1.1" viewBox="0 0 20 20" xml:space="preserve"><metadata id="metadata8"/><defs id="defs6"><clipPath id="clipPath16" clipPathUnits="userSpaceOnUse"><path id="path18" d="M 0,16 16,16 16,0 0,0 0,16 Z"/></clipPath><clipPath id="clipPath28" clipPathUnits="userSpaceOnUse"><path id="path30" d="M 0,16 16,16 16,0 0,0 0,16 Z"/></clipPath></defs><g id="g10" transform="matrix(1.25,0,0,-1.25,0,20)"><g id="g12"><g id="g14" clip-path="url(#clipPath16)"><g id="g20" transform="translate(12.5938,7.9688)"><path id="path22" d="m 0,0 c -0.642,0 -1.16,-0.12 -1.594,-0.307 l 0,0.338 0,0.001 1,0 0,2.999 2,0 0,3 -5,0 0,2 -9,0 0,-5 2,0 0,-3 -2,0 0,-3 9,0 0.087,0 c -0.103,-0.58 -0.082,-1.015 -0.082,-1.015 l -0.005,-3.985 7,0 0,3.993 C 3.406,-0.967 1.532,0 0,0" style="fill:#f6f6f6;fill-opacity:1;fill-rule:nonzero;stroke:none"/></g></g></g><g id="g24"><g id="g26" clip-path="url(#clipPath28)"><g id="g32" transform="translate(11.0186,4.4375)"><path id="path34" d="M 0,0 C 0.06,0.729 0.334,1.541 1.575,1.541 2.824,1.541 2.966,0.746 2.979,0 L 3.945,0 C 3.86,1.119 3.802,2.531 1.575,2.531 -0.82,2.531 -0.87,1.125 -1.001,0 L 0,0 Z" style="fill:#424242;fill-opacity:1;fill-rule:nonzero;stroke:none"/></g><path id="path36" d="m 13,2 -1,0 0,1 1,0 0,-1 z m 1,2 -3,0 -1,0 0,-3 5,0 0,3 -1,0 z" style="fill:#424242;fill-opacity:1;fill-rule:nonzero;stroke:none"/><path id="path38" d="m 13,12 -3,0 0,1 3,0 0,-1 z" style="fill:#424242;fill-opacity:1;fill-rule:nonzero;stroke:none"/><path id="path40" d="m 11,9 -8,0 0,1 8,0 0,-1 z" style="fill:#424242;fill-opacity:1;fill-rule:nonzero;stroke:none"/><path id="path42" d="M 5,6 1,6 1,7 5,7 5,6 Z" style="fill:#424242;fill-opacity:1;fill-rule:nonzero;stroke:none"/><g id="g44" transform="translate(10,6.9609)"><path id="path46" d="m 0,0 0,0.039 -3,0 0,-1 2.381,0 C -0.476,-0.626 -0.272,-0.295 0,0" style="fill:#424242;fill-opacity:1;fill-rule:nonzero;stroke:none"/></g></g></g><path id="path48" d="m 7,13 -5,0 0,1 5,0 0,-1 z m -6,-1 7,0 0,3 -7,0 0,-3 z" style="fill:#388a34;fill-opacity:1;fill-rule:nonzero;stroke:none"/><path id="path50" d="m 2,13 5,0 0,1.001 -5,0 L 2,13 Z" style="fill:#f0eff1;fill-opacity:1;fill-rule:nonzero;stroke:none"/><path id="path52" d="m 12,2 1,0 0,0.959 -1,0 L 12,2 Z" style="fill:#f0eff1;fill-opacity:1;fill-rule:nonzero;stroke:none"/><path id="path54" d="m 12,2 1,0 0,1 -1,0 0,-1 z" style="fill:#f0eff1;fill-opacity:1;fill-rule:nonzero;stroke:none"/></g></svg>