<svg xmlns="http://www.w3.org/2000/svg" xmlns:svg="http://www.w3.org/2000/svg" id="svg2" width="20" height="20" version="1.1" viewBox="0 0 20 20" xml:space="preserve"><metadata id="metadata8"/><g id="g10" transform="matrix(1.25,0,0,-1.25,0,20)"><g id="g12" transform="translate(0,16.0002)"><path id="path14" d="m 0,0 0,-5 2,0 0,-3 -2,0 0,-3 9,0 0,-5 7,0 0,7 -5,0 0,1 1,0 0,3 2,0 0,3 -5,0 0,2 -9,0 z" style="fill:#f6f6f6;fill-opacity:1;fill-rule:nonzero;stroke:none"/></g><path id="path16" d="m 10,12 3,0 0,1 -3,0 0,-1 z" style="fill:#424242;fill-opacity:1;fill-rule:nonzero;stroke:none"/><path id="path18" d="m 3,9 8,0 0,1 -8,0 0,-1 z" style="fill:#424242;fill-opacity:1;fill-rule:nonzero;stroke:none"/><path id="path20" d="m 1,6 4.001,0 0,1 L 1,7 1,6 Z" style="fill:#424242;fill-opacity:1;fill-rule:nonzero;stroke:none"/><path id="path22" d="M 7,6 9,6 9,7 7,7 7,6 Z" style="fill:#424242;fill-opacity:1;fill-rule:nonzero;stroke:none"/><g id="g24" transform="translate(14,3)"><path id="path26" d="M 0,0 -1,-1 -1,0.5 -2.5,-1 -3,-0.5 -1.5,1 -3,1 -2,2 0,2 0,0 Z m -4,-2 5,0 0,5 -5,0 0,-5 z" style="fill:#424242;fill-opacity:1;fill-rule:nonzero;stroke:none"/></g><path id="path28" d="m 7,13 -5,0 0,1 5,0 0,-1 z m -6,-1 7,0 0,3 -7,0 0,-3 z" style="fill:#388a34;fill-opacity:1;fill-rule:nonzero;stroke:none"/><path id="path30" d="m 2,13 5,0 0,1.001 -5,0 L 2,13 Z" style="fill:#f0eff1;fill-opacity:1;fill-rule:nonzero;stroke:none"/><g id="g32" transform="translate(14,5)"><path id="path34" d="M 0,0 0,-2 -1,-3 -1,-1.5 -2.5,-3 -3,-2.5 -1.5,-1 -3,-1 -2,0 0,0 Z" style="fill:#f0eff1;fill-opacity:1;fill-rule:nonzero;stroke:none"/></g></g></svg>