<svg xmlns="http://www.w3.org/2000/svg" xmlns:svg="http://www.w3.org/2000/svg" id="svg2" width="20" height="20" version="1.1" viewBox="0 0 20 20" xml:space="preserve"><metadata id="metadata8"/><defs id="defs6"><clipPath id="clipPath16" clipPathUnits="userSpaceOnUse"><path id="path18" d="M 0,16 16,16 16,0 0,0 0,16 Z"/></clipPath><clipPath id="clipPath24" clipPathUnits="userSpaceOnUse"><path id="path26" d="M 0,16 16,16 16,0 0,0 0,16 Z"/></clipPath><clipPath id="clipPath46" clipPathUnits="userSpaceOnUse"><path id="path48" d="M 0,16 16,16 16,0 0,0 0,16 Z"/></clipPath><clipPath id="clipPath58" clipPathUnits="userSpaceOnUse"><path id="path60" d="M 0,16 16,16 16,0 0,0 0,16 Z"/></clipPath><clipPath id="clipPath70" clipPathUnits="userSpaceOnUse"><path id="path72" d="M 0,16 16,16 16,0 0,0 0,16 Z"/></clipPath></defs><g id="g10" transform="matrix(1.25,0,0,-1.25,0,20)"><g id="g12"><g id="g14" clip-path="url(#clipPath16)"><g id="g20"><g id="g28"><g style="opacity:0" id="g30" clip-path="url(#clipPath24)"><path id="path32" d="M 16,0 0,0 0,16 16,16 16,0 Z" style="fill:#f6f6f6;fill-opacity:1;fill-rule:nonzero;stroke:none"/></g></g></g><g id="g34" transform="translate(2.5,4)"><path id="path36" d="m 0,0 c -1.379,0 -2.5,1.122 -2.5,2.5 0,0.67 0.261,1.299 0.734,1.771 L 0.593,6.629 C 0.53,6.922 0.5,7.211 0.5,7.5 0.5,9.982 2.519,12 5,12 7.481,12 9.5,9.982 9.5,7.5 9.5,5.02 7.481,3 5,3 4.71,3 4.421,3.031 4.128,3.094 L 1.769,0.734 C 1.297,0.262 0.669,0 0,0" style="fill:#f6f6f6;fill-opacity:1;fill-rule:nonzero;stroke:none"/></g><g id="g38" transform="translate(12,0)"><path id="path40" d="M 0,0 C -2.206,0 -4,1.794 -4,4 -4,6.206 -2.206,8 0,8 2.206,8 4,6.206 4,4 4,1.794 2.206,0 0,0" style="fill:#f6f6f6;fill-opacity:1;fill-rule:nonzero;stroke:none"/></g></g></g><g id="g42"><g id="g44" clip-path="url(#clipPath46)"><g id="g50" transform="translate(8,10)"><path id="path52" d="M 0,0 -2,2 0.758,4.758 C 0.366,4.909 -0.056,5 -0.5,5 -2.433,5 -4,3.434 -4,1.5 -4,1.09 -3.916,0.701 -3.786,0.336 L -6.56,-2.438 C -6.832,-2.709 -7,-3.084 -7,-3.5 -7,-4.328 -6.328,-5 -5.5,-5 c 0.414,0 0.79,0.169 1.062,0.441 l 2.773,2.774 C -1.299,-1.916 -0.91,-2 -0.5,-2 1.433,-2 3,-0.433 3,1.5 3,1.945 2.909,2.367 2.758,2.758 L 0,0 Z" style="fill:#424242;fill-opacity:1;fill-rule:nonzero;stroke:none"/></g></g></g><g id="g54"><g id="g56" clip-path="url(#clipPath58)"><g id="g62" transform="translate(12,1.7832)"><path id="path64" d="M 0,0 C -0.47,0 -0.904,0.148 -1.264,0.398 L 1.818,3.48 C 2.068,3.121 2.217,2.687 2.217,2.217 2.217,0.994 1.223,0 0,0 M -1.587,0.672 -1.545,0.63 c -0.013,0.015 -0.027,0.029 -0.042,0.042 m -0.63,1.545 c 0,1.222 0.994,2.217 2.217,2.217 0.47,0 0.904,-0.149 1.264,-0.399 L -1.818,0.953 c -0.25,0.36 -0.399,0.794 -0.399,1.264 M 1.587,3.762 1.545,3.804 C 1.558,3.789 1.572,3.774 1.587,3.762 M 0,5.217 c -1.654,0 -3,-1.346 -3,-3 0,-1.654 1.346,-3 3,-3 1.654,0 3,1.346 3,3 0,1.654 -1.346,3 -3,3" style="fill:#424242;fill-opacity:1;fill-rule:nonzero;stroke:none"/></g></g></g><g id="g66"><g id="g68" clip-path="url(#clipPath70)"><g id="g74" transform="translate(9.7832,4)"><path id="path76" d="m 0,0 c 0,1.223 0.994,2.217 2.217,2.217 0.47,0 0.904,-0.149 1.263,-0.399 L 0.398,-1.264 C 0.148,-0.904 0,-0.47 0,0" style="fill:#f0eff1;fill-opacity:1;fill-rule:nonzero;stroke:none"/></g><g id="g78" transform="translate(12,1.7832)"><path id="path80" d="M 0,0 C -0.47,0 -0.904,0.148 -1.264,0.398 L 1.818,3.48 C 2.068,3.121 2.217,2.687 2.217,2.217 2.217,0.994 1.223,0 0,0" style="fill:#f0eff1;fill-opacity:1;fill-rule:nonzero;stroke:none"/></g></g></g></g></svg>