<svg xmlns="http://www.w3.org/2000/svg" xmlns:svg="http://www.w3.org/2000/svg" id="svg2" width="20" height="20" version="1.1" viewBox="0 0 20 20" xml:space="preserve"><metadata id="metadata8"/><defs id="defs6"><clipPath id="clipPath16" clipPathUnits="userSpaceOnUse"><path id="path18" d="M 0,16 16,16 16,0 0,0 0,16 Z"/></clipPath><clipPath id="clipPath24" clipPathUnits="userSpaceOnUse"><path id="path26" d="M 0,16 16,16 16,0 0,0 0,16 Z"/></clipPath><clipPath id="clipPath42" clipPathUnits="userSpaceOnUse"><path id="path44" d="M 0,16 16,16 16,0 0,0 0,16 Z"/></clipPath></defs><g id="g10" transform="matrix(1.25,0,0,-1.25,0,20)"><g id="g12"><g id="g14" clip-path="url(#clipPath16)"><g id="g20"><g id="g28"><g style="opacity:0" id="g30" clip-path="url(#clipPath24)"><path id="path32" d="M 16,0 0,0 0,16 16,16 16,0 Z" style="fill:#f6f6f6;fill-opacity:1;fill-rule:nonzero;stroke:none"/></g></g></g><g id="g34" transform="translate(15,9.5)"><path id="path36" d="M 0,0 C 0,3.038 -2.463,5.5 -5.5,5.5 -7.019,5.5 -8.394,4.884 -9.389,3.889 L -9.387,3.887 C -10.383,2.891 -11,1.516 -11,0 c 0,-0.37 0.043,-0.742 0.13,-1.127 l -3.25,-3.25 C -14.688,-4.945 -15,-5.699 -15,-6.5 c 0,-1.654 1.346,-3 3,-3 0.803,0 1.558,0.312 2.122,0.881 l 3.251,3.25 C -6.242,-5.457 -5.869,-5.5 -5.5,-5.5 c 1.516,0 2.891,0.617 3.887,1.613 l 0.002,-0.002 C -0.615,-2.894 0,-1.519 0,0" style="fill:#f6f6f6;fill-opacity:1;fill-rule:nonzero;stroke:none"/></g></g></g><g id="g38"><g id="g40" clip-path="url(#clipPath42)"><g id="g46" transform="translate(10,8)"><path id="path48" d="M 0,0 -2,2 1.508,5.507 C 0.9,5.812 0.226,6 -0.5,6 -2.985,6 -5,3.985 -5,1.5 -5,1 -4.899,0.528 -4.749,0.079 -5.848,-1.02 -6.926,-2.097 -8.413,-3.584 -8.775,-3.947 -9,-4.447 -9,-5 c 0,-1.104 0.896,-2 2,-2 0.553,0 1.054,0.225 1.415,0.588 1.487,1.486 2.565,2.564 3.664,3.663 C -1.472,-2.899 -1,-3 -0.5,-3 1.985,-3 4,-0.985 4,1.5 4,2.226 3.813,2.901 3.508,3.507 L 0,0 Z" style="fill:#424242;fill-opacity:1;fill-rule:nonzero;stroke:none"/></g></g></g></g></svg>