<svg xmlns="http://www.w3.org/2000/svg" xmlns:svg="http://www.w3.org/2000/svg" id="svg2" width="20" height="20" version="1.1" viewBox="0 0 20 20" xml:space="preserve"><metadata id="metadata8"/><defs id="defs6"><clipPath id="clipPath16" clipPathUnits="userSpaceOnUse"><path id="path18" d="M 0,16 16,16 16,0 0,0 0,16 Z"/></clipPath><clipPath id="clipPath32" clipPathUnits="userSpaceOnUse"><path id="path34" d="M 0,16 16,16 16,0 0,0 0,16 Z"/></clipPath></defs><g id="g10" transform="matrix(1.25,0,0,-1.25,0,20)"><g id="g12"><g id="g14" clip-path="url(#clipPath16)"><g id="g20" transform="translate(2.5,4)"><path id="path22" d="m 0,0 c -1.379,0 -2.5,1.122 -2.5,2.5 0,0.67 0.261,1.299 0.734,1.771 L 0.593,6.629 C 0.53,6.922 0.5,7.211 0.5,7.5 0.5,9.982 2.519,12 5,12 7.481,12 9.5,9.982 9.5,7.5 9.5,5.02 7.481,3 5,3 4.71,3 4.421,3.031 4.128,3.094 L 1.769,0.734 C 1.297,0.262 0.669,0 0,0" style="fill:#f6f6f6;fill-opacity:1;fill-rule:nonzero;stroke:none"/></g><g id="g24" transform="translate(14.6074,2.4551)"><path id="path26" d="m 0,0 1.393,1.045 0,1.5 -2.157,0 -0.599,2 -1.489,0 -0.599,-2 -2.156,0 0,-1.5 1.392,-1.045 -0.736,-2.455 1.677,0 1.167,0.875 1.167,-0.875 1.676,0 L 0,0 Z" style="fill:#f6f6f6;fill-opacity:1;fill-rule:nonzero;stroke:none"/></g></g></g><g id="g28"><g id="g30" clip-path="url(#clipPath32)"><g id="g36" transform="translate(8,10)"><path id="path38" d="M 0,0 -2,2 0.758,4.758 C 0.366,4.909 -0.056,5 -0.5,5 -2.433,5 -4,3.434 -4,1.5 -4,1.09 -3.916,0.701 -3.786,0.336 L -6.56,-2.438 C -6.832,-2.709 -7,-3.084 -7,-3.5 -7,-4.328 -6.328,-5 -5.5,-5 c 0.414,0 0.79,0.169 1.062,0.441 l 2.773,2.774 C -1.299,-1.916 -0.91,-2 -0.5,-2 1.433,-2 3,-0.433 3,1.5 3,1.945 2.909,2.367 2.758,2.758 L 0,0 Z" style="fill:#424242;fill-opacity:1;fill-rule:nonzero;stroke:none"/></g></g></g><g id="g40" transform="translate(13.4492,2.8369)"><path id="path42" d="m 0,0 1.551,1.163 -1.901,0 -0.599,2 -0.6,-2 -1.9,0 1.551,-1.163 -0.551,-1.837 1.5,1.125 1.5,-1.125 L 0,0 Z" style="fill:#424242;fill-opacity:1;fill-rule:nonzero;stroke:none"/></g></g></svg>