<svg xmlns="http://www.w3.org/2000/svg" xmlns:svg="http://www.w3.org/2000/svg" id="svg2" width="20" height="20" version="1.1" viewBox="0 0 20 20" xml:space="preserve"><metadata id="metadata8"/><defs id="defs6"><clipPath id="clipPath16" clipPathUnits="userSpaceOnUse"><path id="path18" d="M 0,16 16,16 16,0 0,0 0,16 Z"/></clipPath><clipPath id="clipPath32" clipPathUnits="userSpaceOnUse"><path id="path34" d="M 0,16 16,16 16,0 0,0 0,16 Z"/></clipPath><clipPath id="clipPath44" clipPathUnits="userSpaceOnUse"><path id="path46" d="M 0,16 16,16 16,0 0,0 0,16 Z"/></clipPath></defs><g id="g10" transform="matrix(1.25,0,0,-1.25,0,20)"><g id="g12"><g id="g14" clip-path="url(#clipPath16)"><g id="g20" transform="translate(2.5,4)"><path id="path22" d="m 0,0 c -1.379,0 -2.5,1.122 -2.5,2.5 0,0.67 0.261,1.299 0.734,1.771 L 0.593,6.629 C 0.53,6.922 0.5,7.211 0.5,7.5 0.5,9.982 2.519,12 5,12 7.481,12 9.5,9.982 9.5,7.5 9.5,5.02 7.481,3 5,3 4.71,3 4.421,3.031 4.128,3.094 L 1.769,0.734 C 1.297,0.262 0.669,0 0,0" style="fill:#f6f6f6;fill-opacity:1;fill-rule:nonzero;stroke:none"/></g><g id="g24" transform="translate(13.5713,7)"><path id="path26" d="M 0,0 C -0.276,0 -0.677,-0.055 -1.071,-0.305 -1.466,-0.055 -1.866,0 -2.143,0 c -1.316,0 -2.428,-1.137 -2.428,-2.482 0,-0.594 0.196,-1.188 0.56,-1.657 0.293,-0.354 2.246,-2.529 2.246,-2.529 L -1.468,-7 l 0.909,0 0.3,0.352 c 0,0 1.836,2.159 2.148,2.535 0.342,0.442 0.54,1.037 0.54,1.631 C 2.429,-1.137 1.316,0 0,0" style="fill:#f6f6f6;fill-opacity:1;fill-rule:nonzero;stroke:none"/></g></g></g><g id="g28"><g id="g30" clip-path="url(#clipPath32)"><g id="g36" transform="translate(8,10)"><path id="path38" d="M 0,0 -2,2 0.758,4.758 C 0.366,4.909 -0.056,5 -0.5,5 -2.433,5 -4,3.434 -4,1.5 -4,1.09 -3.916,0.701 -3.786,0.336 L -6.56,-2.438 C -6.832,-2.709 -7,-3.084 -7,-3.5 -7,-4.328 -6.328,-5 -5.5,-5 c 0.414,0 0.79,0.169 1.062,0.441 l 2.773,2.774 C -1.299,-1.916 -0.91,-2 -0.5,-2 1.433,-2 3,-0.433 3,1.5 3,1.945 2.909,2.367 2.758,2.758 L 0,0 Z" style="fill:#424242;fill-opacity:1;fill-rule:nonzero;stroke:none"/></g></g></g><g id="g40"><g id="g42" clip-path="url(#clipPath44)"><g id="g48" transform="translate(13.5713,6)"><path id="path50" d="M 0,0 C -0.527,0 -0.86,-0.747 -1.071,-1.25 -1.282,-0.747 -1.616,0 -2.143,0 -2.87,0 -3.571,-0.664 -3.571,-1.482 c 0,-0.375 0.127,-0.756 0.329,-1.018 0.29,-0.35 2.221,-2.5 2.221,-2.5 0,0 1.83,2.15 2.12,2.5 0.203,0.262 0.33,0.643 0.33,1.018 C 1.429,-0.664 0.729,0 0,0" style="fill:#424242;fill-opacity:1;fill-rule:nonzero;stroke:none"/></g></g></g></g></svg>