<svg xmlns="http://www.w3.org/2000/svg" xmlns:svg="http://www.w3.org/2000/svg" id="svg2" width="20" height="20" version="1.1" viewBox="0 0 20 20" xml:space="preserve"><metadata id="metadata8"/><defs id="defs6"><clipPath id="clipPath16" clipPathUnits="userSpaceOnUse"><path id="path18" d="M 0,16 16,16 16,0 0,0 0,16 Z"/></clipPath><clipPath id="clipPath24" clipPathUnits="userSpaceOnUse"><path id="path26" d="M 0,16 16,16 16,0 0,0 0,16 Z"/></clipPath><clipPath id="clipPath38" clipPathUnits="userSpaceOnUse"><path id="path40" d="M 0,16 16,16 16,0 0,0 0,16 Z"/></clipPath><clipPath id="clipPath56" clipPathUnits="userSpaceOnUse"><path id="path58" d="M 0,16 16,16 16,0 0,0 0,16 Z"/></clipPath></defs><g id="g10" transform="matrix(1.25,0,0,-1.25,0,20)"><g id="g12"><g id="g14" clip-path="url(#clipPath16)"><g id="g20"><g id="g28"><g style="opacity:0" id="g30" clip-path="url(#clipPath24)"><path id="path32" d="M 16,0 0,0 0,16 16,16 16,0 Z" style="fill:#f6f6f6;fill-opacity:1;fill-rule:nonzero;stroke:none"/></g></g></g><g id="g34"><g id="g42"><g style="opacity:.00999451" id="g44" clip-path="url(#clipPath38)"><path id="path46" d="M 16,0 0,0 0,16 16,16 16,0 Z" style="fill:#f6f6f6;fill-opacity:1;fill-rule:nonzero;stroke:none"/></g></g></g><g id="g48" transform="translate(14,6)"><path id="path50" d="M 0,0 0,2 -3.603,2 C -2.631,3 -2,4.085 -2,5.457 c 0,2.482 -2.019,4.522 -4.5,4.522 -2.481,0 -4.5,-2.007 -4.5,-4.49 0,-0.289 0.03,-0.572 0.093,-0.865 L -13.266,2.268 C -13.739,1.796 -14,1.168 -14,0.499 c 0,-1.378 1.121,-2.5 2.5,-2.5 0.669,0 1.297,0.263 1.769,0.735 l 2.359,2.36 C -7.079,1.031 -6.799,1 -6.509,1 -5.577,1 -5,1.285 -4,1.772 L -4,0 l -2,0 0,-4 2,0 0,-2 4,0 0,2 2,0 0,4 -2,0 z" style="fill:#f6f6f6;fill-opacity:1;fill-rule:nonzero;stroke:none"/></g></g></g><g id="g52"><g id="g54" clip-path="url(#clipPath56)"><g id="g60" transform="translate(8,10)"><path id="path62" d="M 0,0 -2,2 0.758,4.758 C 0.366,4.909 -0.056,5 -0.5,5 -2.433,5 -4,3.434 -4,1.5 -4,1.09 -3.916,0.701 -3.786,0.336 L -6.56,-2.438 C -6.832,-2.709 -7,-3.084 -7,-3.5 -7,-4.328 -6.328,-5 -5.5,-5 c 0.414,0 0.79,0.169 1.062,0.441 l 2.773,2.774 C -1.299,-1.916 -0.91,-2 -0.5,-2 1.433,-2 3,-0.433 3,1.5 3,1.945 2.909,2.367 2.758,2.758 L 0,0 Z" style="fill:#424242;fill-opacity:1;fill-rule:nonzero;stroke:none"/></g></g></g><g id="g64" transform="translate(15,4.9824)"><path id="path66" d="m 0,0 -2,0 0,2.018 -1.982,0 0,-2.018 -2.018,0 0,-1.982 2.018,0 0,-2 1.982,0 0,2 2,0 L 0,0 Z" style="fill:#388a34;fill-opacity:1;fill-rule:nonzero;stroke:none"/></g></g></svg>