<svg xmlns="http://www.w3.org/2000/svg" xmlns:svg="http://www.w3.org/2000/svg" id="svg2" width="20" height="20" version="1.1" viewBox="0 0 20 20" xml:space="preserve"><metadata id="metadata8"/><defs id="defs6"><clipPath id="clipPath16" clipPathUnits="userSpaceOnUse"><path id="path18" d="M 0,16 16,16 16,0 0,0 0,16 Z"/></clipPath><clipPath id="clipPath24" clipPathUnits="userSpaceOnUse"><path id="path26" d="M 0,16 16,16 16,0 0,0 0,16 Z"/></clipPath></defs><g id="g10" transform="matrix(1.25,0,0,-1.25,0,20)"><g id="g12"><g id="g14" clip-path="url(#clipPath16)"><g id="g20"><g id="g28"><g style="opacity:0" id="g30" clip-path="url(#clipPath24)"><path id="path32" d="M 16,0 0,0 0,16 16,16 16,0 Z" style="fill:#f6f6f6;fill-opacity:1;fill-rule:nonzero;stroke:none"/></g></g></g></g></g><g id="g34" transform="translate(8.0001,12.9996)"><path id="path36" d="m 0,0 0,-3 -2,0 0,2 -6,0 0,-6.999 6,0 0,2 2,0 L 0,-9 8,-9 8,0 0,0 Z" style="fill:#f6f6f6;fill-opacity:1;fill-rule:nonzero;stroke:none"/></g><path id="path38" d="M 1,6 5,6 5,11 1,11 1,6 Z" style="fill:#424242;fill-opacity:1;fill-rule:nonzero;stroke:none"/><path id="path40" d="m 9,5 6,0 0,7 -6,0 0,-7 z" style="fill:#424242;fill-opacity:1;fill-rule:nonzero;stroke:none"/><path id="path42" d="M 6,8 8,8 8,9 6,9 6,8 Z" style="fill:#424242;fill-opacity:1;fill-rule:nonzero;stroke:none"/></g></svg>