<svg xmlns="http://www.w3.org/2000/svg" xmlns:svg="http://www.w3.org/2000/svg" id="svg2" width="20" height="20" version="1.1" viewBox="0 0 20 20" xml:space="preserve"><metadata id="metadata8"/><g id="g10" transform="matrix(1.25,0,0,-1.25,0,20)"><g id="g12" transform="translate(0,16.0002)"><path id="path14" d="m 0,0 0,-11 6,0 0,6.001 2,0 0,-6.001 1,0 0,-5 7,0 0,7 -2,0 0,9 -14,0 z" style="fill:#f6f6f6;fill-opacity:1;fill-rule:nonzero;stroke:none"/></g><g id="g16" transform="translate(14,3)"><path id="path18" d="M 0,0 -1,-1 -1,0.5 -2.5,-1 -3,-0.5 -1.5,1 -3,1 -2,2 0,2 0,0 Z m -4,-2 5,0 0,5 -5,0 0,-5 z" style="fill:#424242;fill-opacity:1;fill-rule:nonzero;stroke:none"/></g><g id="g20" transform="translate(14,5)"><path id="path22" d="M 0,0 0,-2 -1,-3 -1,-1.5 -2.5,-3 -3,-2.5 -1.5,-1 -3,-1 -2,0 0,0 Z" style="fill:#f0eff1;fill-opacity:1;fill-rule:nonzero;stroke:none"/></g><path id="path24" d="m 9,7 4,0 0,3 -4,0 0,-3 z" style="fill:#00539c;fill-opacity:1;fill-rule:nonzero;stroke:none"/><path id="path26" d="M 1,6 5,6 5,10 1,10 1,6 Z" style="fill:#00539c;fill-opacity:1;fill-rule:nonzero;stroke:none"/><path id="path28" d="m 13,15 -12,0 0,-3 12,0 0,3 z" style="fill:#00539c;fill-opacity:1;fill-rule:nonzero;stroke:none"/></g></svg>