<svg xmlns="http://www.w3.org/2000/svg" xmlns:svg="http://www.w3.org/2000/svg" id="svg2" width="20" height="20" version="1.1" viewBox="0 0 20 20" xml:space="preserve"><metadata id="metadata8"/><defs id="defs6"><clipPath id="clipPath16" clipPathUnits="userSpaceOnUse"><path id="path18" d="M 0,16 16,16 16,0 0,0 0,16 Z"/></clipPath><clipPath id="clipPath30" clipPathUnits="userSpaceOnUse"><path id="path32" d="M 0,16 16,16 16,0 0,0 0,16 Z"/></clipPath><clipPath id="clipPath44" clipPathUnits="userSpaceOnUse"><path id="path46" d="M 0,16 16,16 16,0 0,0 0,16 Z"/></clipPath></defs><g id="g10" transform="matrix(1.25,0,0,-1.25,0,20)"><g id="g12"><g id="g14" clip-path="url(#clipPath16)"><g id="g20" transform="translate(14,6.9541)"><path id="path22" d="m 0,0 0,9.046 -14,0 0,-11 6,0 0,6.001 2,0 0,-6.001 1.049,0 C -4.982,-2.11 -5,-2.271 -5,-2.437 c 0,-0.593 0.196,-1.187 0.561,-1.656 0.293,-0.354 2.246,-2.529 2.246,-2.529 l 0.297,-0.332 0.909,0 0.299,0.351 c 0,0 1.836,2.16 2.148,2.536 C 1.803,-3.625 2,-3.03 2,-2.437 2,-1.24 1.12,-0.214 0,0" style="fill:#f6f6f6;fill-opacity:1;fill-rule:nonzero;stroke:none"/></g></g></g><path id="path24" d="m 13,15 -12,0 0,-3 12,0 0,3 z" style="fill:#00539c;fill-opacity:1;fill-rule:nonzero;stroke:none"/><g id="g26"><g id="g28" clip-path="url(#clipPath30)"><g id="g34" transform="translate(9,10)"><path id="path36" d="m 0,0 0,-4 0.507,0 c 0.448,0.6 1.146,1 1.922,1 0.276,0 0.676,-0.055 1.071,-0.305 0.17,0.108 0.339,0.174 0.5,0.22 L 4,0 0,0 Z" style="fill:#00539c;fill-opacity:1;fill-rule:nonzero;stroke:none"/></g><path id="path38" d="M 1,6 5,6 5,10 1,10 1,6 Z" style="fill:#00539c;fill-opacity:1;fill-rule:nonzero;stroke:none"/></g></g><g id="g40"><g id="g42" clip-path="url(#clipPath44)"><g id="g48" transform="translate(13.5713,6)"><path id="path50" d="M 0,0 C -0.527,0 -0.86,-0.747 -1.071,-1.25 -1.282,-0.747 -1.616,0 -2.143,0 -2.87,0 -3.571,-0.664 -3.571,-1.482 c 0,-0.375 0.127,-0.756 0.329,-1.018 0.29,-0.35 2.221,-2.5 2.221,-2.5 0,0 1.83,2.15 2.12,2.5 0.203,0.262 0.33,0.643 0.33,1.018 C 1.429,-0.664 0.729,0 0,0" style="fill:#424242;fill-opacity:1;fill-rule:nonzero;stroke:none"/></g></g></g></g></svg>