<svg xmlns="http://www.w3.org/2000/svg" xmlns:svg="http://www.w3.org/2000/svg" id="svg2" width="20" height="20" version="1.1" viewBox="0 0 20 20" xml:space="preserve"><metadata id="metadata8"/><g id="g10" transform="matrix(1.25,0,0,-1.25,0,20)"><g id="g12" transform="translate(0,16.0002)"><path id="path14" d="m 0,0 0,-11 6,0 0,6.001 2,0 0,-6.001 1,0 0,-1.5 1.392,-1.045 -0.736,-2.455 1.677,0 1.167,0.875 1.167,-0.875 1.677,0 -0.737,2.455 1.393,1.045 0,1.5 -2,0 0,11 -14,0 z" style="fill:#f6f6f6;fill-opacity:1;fill-rule:nonzero;stroke:none"/></g><g id="g16" transform="translate(13,7)"><path id="path18" d="m 0,0 0,3 -4,0 0,-4 2.456,0 0.3,1 L 0,0 Z" style="fill:#00539c;fill-opacity:1;fill-rule:nonzero;stroke:none"/></g><path id="path20" d="M 1,6 5,6 5,10 1,10 1,6 Z" style="fill:#00539c;fill-opacity:1;fill-rule:nonzero;stroke:none"/><path id="path22" d="m 13,15 -12,0 0,-3 12,0 0,3 z" style="fill:#00539c;fill-opacity:1;fill-rule:nonzero;stroke:none"/><g id="g24" transform="translate(13.4492,2.8369)"><path id="path26" d="m 0,0 1.551,1.163 -1.901,0 -0.599,2 -0.6,-2 -1.9,0 1.551,-1.163 -0.551,-1.837 1.5,1.125 1.5,-1.125 L 0,0 Z" style="fill:#424242;fill-opacity:1;fill-rule:nonzero;stroke:none"/></g></g></svg>