<svg xmlns="http://www.w3.org/2000/svg" xmlns:svg="http://www.w3.org/2000/svg" id="svg2" width="20" height="20" version="1.1" viewBox="0 0 20 20" xml:space="preserve"><metadata id="metadata8"/><g id="g10" transform="matrix(1.25,0,0,-1.25,0,20)"><path id="path12" d="M 14,1 2,1 2,16 14,16 14,1 Z" style="fill:#f6f6f6;fill-opacity:1;fill-rule:nonzero;stroke:none"/><path id="path14" d="M 12,14 4,14 4,3 12,3 12,14 Z M 13,2 3,2 3,15 13,15 13,2 Z m -3,4 -5,0 0,-1 5,0 0,1 z m 1,2 -6,0 0,-1 6,0 0,1 z m 0,2 -6,0 0,-1 6,0 0,1 z m 0,1 -4,0 0,1 4,0 0,-1 z" style="fill:#424242;fill-opacity:1;fill-rule:nonzero;stroke:none"/><path id="path16" d="m 11,11 -4,0 0,1 4,0 0,-1 z m 0,-2 -6,0 0,1 6,0 0,-1 z M 11,7 5,7 5,8 11,8 11,7 Z M 10,5 5,5 5,6 10,6 10,5 Z M 4,3 12,3 12,14 4,14 4,3 Z" style="fill:#f0eff1;fill-opacity:1;fill-rule:nonzero;stroke:none"/></g></svg>