<svg xmlns="http://www.w3.org/2000/svg" xmlns:svg="http://www.w3.org/2000/svg" id="svg2" width="20" height="20" version="1.1" viewBox="0 0 20 20" xml:space="preserve"><metadata id="metadata8"/><g id="g10" transform="matrix(1.25,0,0,-1.25,0,20)"><g id="g12" transform="translate(3.9996,16.0002)"><path id="path14" d="m 0,0 0,-6 -4,0 0,-7.001 7.001,0 0,2.001 1.999,0 0,-1.5 1.393,-1.045 -0.737,-2.455 1.677,0 1.168,0.875 1.167,-0.875 1.676,0 -0.737,2.455 1.394,1.045 0,1.5 -2.157,0 L 9.245,-9 9,-9 9,0 0,0 Z" style="fill:#f6f6f6;fill-opacity:1;fill-rule:nonzero;stroke:none"/></g><path id="path16" d="m 7,10 3,0 0,1 -3,0 0,-1 z" style="fill:#424242;fill-opacity:1;fill-rule:nonzero;stroke:none"/><path id="path18" d="M 2,8 5,8 5,5 2,5 2,8 Z M 1,4 6,4 6,9 1,9 1,4 Z" style="fill:#424242;fill-opacity:1;fill-rule:nonzero;stroke:none"/><path id="path20" d="m 7,12 3,0 0,1 -3,0 0,-1 z" style="fill:#424242;fill-opacity:1;fill-rule:nonzero;stroke:none"/><g id="g22" transform="translate(7,6)"><path id="path24" d="M 0,0 4.456,0 4.756,1 5,1 5,9 -2,9 -2,4 -1,4 -1,8 4,8 4,1 0,1 0,0 Z" style="fill:#424242;fill-opacity:1;fill-rule:nonzero;stroke:none"/></g><path id="path26" d="M 7,8 10,8 10,9 7,9 7,8 Z" style="fill:#424242;fill-opacity:1;fill-rule:nonzero;stroke:none"/><path id="path28" d="m 10,12 -3,0 0,1 3,0 0,-1 z m -4,2 0,-4 1,0 0,1 3,0 0,-1 -3,0 0,-1 3,0 0,-1 -3,0 0,-1 4,0 0,7 -5,0 z" style="fill:#f0eff1;fill-opacity:1;fill-rule:nonzero;stroke:none"/><path id="path30" d="m 2,4.998 3,0 0,3 -3,0 0,-3 z" style="fill:#f0eff1;fill-opacity:1;fill-rule:nonzero;stroke:none"/><g id="g32" transform="translate(13.4492,2.8369)"><path id="path34" d="m 0,0 1.551,1.163 -1.901,0 -0.599,2 -0.6,-2 -1.9,0 1.551,-1.163 -0.551,-1.837 1.5,1.125 1.5,-1.125 L 0,0 Z" style="fill:#424242;fill-opacity:1;fill-rule:nonzero;stroke:none"/></g></g></svg>