<svg xmlns="http://www.w3.org/2000/svg" xmlns:svg="http://www.w3.org/2000/svg" id="svg2" width="20" height="20" version="1.1" viewBox="0 0 20 20" xml:space="preserve"><metadata id="metadata8"/><defs id="defs6"><clipPath id="clipPath16" clipPathUnits="userSpaceOnUse"><path id="path18" d="M 0,16 16,16 16,0 0,0 0,16 Z"/></clipPath><clipPath id="clipPath24" clipPathUnits="userSpaceOnUse"><path id="path26" d="M 0,16 16,16 16,0 0,0 0,16 Z"/></clipPath><clipPath id="clipPath48" clipPathUnits="userSpaceOnUse"><path id="path50" d="M 0,16 16,16 16,0 0,0 0,16 Z"/></clipPath><clipPath id="clipPath70" clipPathUnits="userSpaceOnUse"><path id="path72" d="M 0,16 16,16 16,0 0,0 0,16 Z"/></clipPath></defs><g id="g10" transform="matrix(1.25,0,0,-1.25,0,20)"><g id="g12"><g id="g14" clip-path="url(#clipPath16)"><g id="g20"><g id="g28"><g style="opacity:0" id="g30" clip-path="url(#clipPath24)"><path id="path32" d="M 16,0 0,0 0,16 16,16 16,0 Z" style="fill:#f6f6f6;fill-opacity:1;fill-rule:nonzero;stroke:none"/></g></g></g><g id="g34" transform="translate(13,7.8579)"><path id="path36" d="m 0,0 0,8.142 -9,0 0,-6.018 -4,0 0,-6.982 7,0 0,2 1.142,0 C -4.941,-3.179 -5,-3.51 -5,-3.858 c 0,-2.206 1.794,-4 4,-4 2.206,0 4,1.794 4,4 C 3,-2 1.721,-0.447 0,0" style="fill:#f6f6f6;fill-opacity:1;fill-rule:nonzero;stroke:none"/></g></g></g><path id="path38" d="M 2,8 5,8 5,5 2,5 2,8 Z M 1,4 6,4 6,9 1,9 1,4 Z" style="fill:#424242;fill-opacity:1;fill-rule:nonzero;stroke:none"/><path id="path40" d="m 7,10 3,0 0,1 -3,0 0,-1 z" style="fill:#424242;fill-opacity:1;fill-rule:nonzero;stroke:none"/><path id="path42" d="m 7,12 3,0 0,1 -3,0 0,-1 z" style="fill:#424242;fill-opacity:1;fill-rule:nonzero;stroke:none"/><g id="g44"><g id="g46" clip-path="url(#clipPath48)"><g id="g52" transform="translate(11,7.8579)"><path id="path54" d="m 0,0 c 0.321,0.083 0.652,0.142 1,0.142 l 0,7 -7,0 0,-5 1,0 0,4 5,0 L 0,0 Z" style="fill:#424242;fill-opacity:1;fill-rule:nonzero;stroke:none"/></g><g id="g56" transform="translate(9.3818,7)"><path id="path58" d="m 0,0 -2.382,0 0,-1 1.556,0 c 0.221,0.378 0.499,0.714 0.826,1" style="fill:#424242;fill-opacity:1;fill-rule:nonzero;stroke:none"/></g><path id="path60" d="M 7,8 10,8 10,9 7,9 7,8 Z" style="fill:#424242;fill-opacity:1;fill-rule:nonzero;stroke:none"/><g id="g62" transform="translate(12,1.7832)"><path id="path64" d="M 0,0 C -0.47,0 -0.904,0.148 -1.264,0.398 L 1.818,3.48 C 2.068,3.121 2.217,2.687 2.217,2.217 2.217,0.994 1.223,0 0,0 M -1.587,0.672 -1.545,0.63 c -0.013,0.015 -0.027,0.029 -0.042,0.042 m -0.63,1.545 c 0,1.222 0.994,2.217 2.217,2.217 0.47,0 0.904,-0.149 1.264,-0.399 L -1.818,0.953 c -0.25,0.36 -0.399,0.794 -0.399,1.264 M 1.587,3.762 1.545,3.804 C 1.558,3.789 1.572,3.774 1.587,3.762 M 0,5.217 c -1.654,0 -3,-1.346 -3,-3 0,-1.654 1.346,-3 3,-3 1.654,0 3,1.346 3,3 0,1.654 -1.346,3 -3,3" style="fill:#424242;fill-opacity:1;fill-rule:nonzero;stroke:none"/></g></g></g><g id="g66"><g id="g68" clip-path="url(#clipPath70)"><path id="path74" d="m 7,13 3,0 0,-1 -3,0 0,1 z M 7,8 7,7 9.382,7 C 9.843,7.402 10.391,7.7 11,7.858 l 0,6.142 -5,0 0,-4 1,0 0,1 3,0 0,-1 -3,0 0,-1 3,0 0,-1 -3,0 z" style="fill:#f0eff1;fill-opacity:1;fill-rule:nonzero;stroke:none"/><g id="g76" transform="translate(9.7832,4)"><path id="path78" d="m 0,0 c 0,1.223 0.994,2.217 2.217,2.217 0.47,0 0.904,-0.149 1.263,-0.399 L 0.398,-1.264 C 0.148,-0.904 0,-0.47 0,0" style="fill:#f0eff1;fill-opacity:1;fill-rule:nonzero;stroke:none"/></g><g id="g80" transform="translate(12,1.7832)"><path id="path82" d="M 0,0 C -0.47,0 -0.904,0.148 -1.264,0.398 L 1.818,3.48 C 2.068,3.121 2.217,2.687 2.217,2.217 2.217,0.994 1.223,0 0,0" style="fill:#f0eff1;fill-opacity:1;fill-rule:nonzero;stroke:none"/></g><path id="path84" d="M 5,5 2,5 2,8 5,8 5,5 Z" style="fill:#f0eff1;fill-opacity:1;fill-rule:nonzero;stroke:none"/></g></g></g></svg>