<svg xmlns="http://www.w3.org/2000/svg" xmlns:svg="http://www.w3.org/2000/svg" id="svg2" width="20" height="20" version="1.1" viewBox="0 0 20 20" xml:space="preserve"><metadata id="metadata8"/><defs id="defs6"><clipPath id="clipPath16" clipPathUnits="userSpaceOnUse"><path id="path18" d="M 0,16 16,16 16,0 0,0 0,16 Z"/></clipPath><clipPath id="clipPath36" clipPathUnits="userSpaceOnUse"><path id="path38" d="M 0,16 16,16 16,0 0,0 0,16 Z"/></clipPath><clipPath id="clipPath54" clipPathUnits="userSpaceOnUse"><path id="path56" d="M 0,16 16,16 16,0 0,0 0,16 Z"/></clipPath><clipPath id="clipPath66" clipPathUnits="userSpaceOnUse"><path id="path68" d="M 0,16 16,16 16,0 0,0 0,16 Z"/></clipPath></defs><g id="g10" transform="matrix(1.25,0,0,-1.25,0,20)"><g id="g12"><g id="g14" clip-path="url(#clipPath16)"><g id="g20" transform="translate(9,0)"><path id="path22" d="M 0,0 7,0 6.92,5 C 6.803,6.109 6.371,7.755 4,7.934 L 4,16 l -9,0 0,-6 -4,0 0,-7 7,0 0,2 L 0,5 0,3.438 0,0 Z" style="fill:#f6f6f6;fill-opacity:1;fill-rule:nonzero;stroke:none"/></g></g></g><path id="path24" d="M 2,8 5,8 5,5 2,5 2,8 Z M 1,4 6,4 6,9 1,9 1,4 Z" style="fill:#424242;fill-opacity:1;fill-rule:nonzero;stroke:none"/><path id="path26" d="m 7,12 3,0 0,1 -3,0 0,-1 z" style="fill:#424242;fill-opacity:1;fill-rule:nonzero;stroke:none"/><path id="path28" d="m 7,10 3,0 0,1 -3,0 0,-1 z" style="fill:#424242;fill-opacity:1;fill-rule:nonzero;stroke:none"/><path id="path30" d="M 7,8 10,8 10,9 7,9 7,8 Z" style="fill:#424242;fill-opacity:1;fill-rule:nonzero;stroke:none"/><g id="g32"><g id="g34" clip-path="url(#clipPath36)"><g id="g40" transform="translate(11,7.7202)"><path id="path42" d="m 0,0 c 0.288,0.103 0.617,0.179 1,0.217 l 0,7.063 -7,0 0,-5 1,0 0,4 5,0 L 0,0 Z" style="fill:#424242;fill-opacity:1;fill-rule:nonzero;stroke:none"/></g><g id="g44" transform="translate(9.3027,6)"><path id="path46" d="m 0,0 c 0.121,0.347 0.305,0.694 0.584,1 l -2.887,0 0,-1 2,0 L 0,0 Z" style="fill:#424242;fill-opacity:1;fill-rule:nonzero;stroke:none"/></g></g></g><path id="path48" d="m 2,4.998 3,0 0,3 -3,0 0,-3 z" style="fill:#f0eff1;fill-opacity:1;fill-rule:nonzero;stroke:none"/><g id="g50"><g id="g52" clip-path="url(#clipPath54)"><path id="path58" d="m 7,13 3,0 0,-1 -3,0 0,1 z M 7,8 7,7 9.887,7 C 10.155,7.294 10.516,7.546 11,7.72 l 0,6.28 -5,0 0,-4 1,0 0,1 3,0 0,-1 -3,0 0,-1 3,0 0,-1 -3,0 z" style="fill:#f0eff1;fill-opacity:1;fill-rule:nonzero;stroke:none"/></g></g><path id="path60" d="m 13,2 -1,0 0,1 1,0 0,-1 z m 1,2 -3,0 -1,0 0,-3 5,0 0,3 -1,0 z" style="fill:#424242;fill-opacity:1;fill-rule:nonzero;stroke:none"/><g id="g62"><g id="g64" clip-path="url(#clipPath66)"><g id="g70" transform="translate(11.0186,4.4375)"><path id="path72" d="M 0,0 C 0.06,0.729 0.334,1.541 1.575,1.541 2.824,1.541 2.966,0.746 2.979,0 L 3.945,0 C 3.86,1.119 3.802,2.531 1.575,2.531 -0.82,2.531 -0.87,1.125 -1.001,0 L 0,0 Z" style="fill:#424242;fill-opacity:1;fill-rule:nonzero;stroke:none"/></g></g></g><path id="path74" d="m 12,2 1,0 0,1 -1,0 0,-1 z" style="fill:#f0eff1;fill-opacity:1;fill-rule:nonzero;stroke:none"/></g></svg>