<svg xmlns="http://www.w3.org/2000/svg" xmlns:svg="http://www.w3.org/2000/svg" id="svg2" width="20" height="20" version="1.1" viewBox="0 0 20 20" xml:space="preserve"><metadata id="metadata8"/><defs id="defs6"><clipPath id="clipPath20" clipPathUnits="userSpaceOnUse"><path id="path22" d="M 0,16 16,16 16,0 0,0 0,16 Z"/></clipPath><clipPath id="clipPath42" clipPathUnits="userSpaceOnUse"><path id="path44" d="M 0,16 16,16 16,0 0,0 0,16 Z"/></clipPath></defs><g id="g10" transform="matrix(1.25,0,0,-1.25,0,20)"><g id="g12" transform="translate(2.9997,16.0002)"><path id="path14" d="m 0,0 0,-3.001 -3,0 0,-7.999 9,0 0,3 3,0 0,8 -9,0 z" style="fill:#f6f6f6;fill-opacity:1;fill-rule:nonzero;stroke:none"/></g><g id="g16"><g id="g18" clip-path="url(#clipPath20)"><g id="g24" transform="translate(13.5713,7)"><path id="path26" d="M 0,0 C -0.276,0 -0.677,-0.055 -1.071,-0.305 -1.466,-0.055 -1.866,0 -2.143,0 c -1.316,0 -2.428,-1.137 -2.428,-2.482 0,-0.594 0.196,-1.188 0.56,-1.657 0.293,-0.354 2.246,-2.529 2.246,-2.529 L -1.468,-7 l 0.909,0 0.3,0.352 c 0,0 1.836,2.159 2.148,2.535 0.342,0.442 0.54,1.037 0.54,1.631 C 2.429,-1.137 1.316,0 0,0" style="fill:#f6f6f6;fill-opacity:1;fill-rule:nonzero;stroke:none"/></g></g></g><g id="g28" transform="translate(1,6)"><path id="path30" d="M 0,0 7,0 7,3 6,3 6,1 1,1 1,5.001 3,5.001 3,6 0,6 0,0 Z" style="fill:#424242;fill-opacity:1;fill-rule:nonzero;stroke:none"/></g><g id="g32" transform="translate(4,15)"><path id="path34" d="m 0,0 0,-3 1,0 0,2.001 5,0 L 6,-5 4,-5 4,-6 7,-6 7,0 0,0 Z" style="fill:#424242;fill-opacity:1;fill-rule:nonzero;stroke:none"/></g><path id="path36" d="M 8,9 4,9 4,12 8,12 8,9 Z" style="fill:#00539c;fill-opacity:1;fill-rule:nonzero;stroke:none"/><g id="g38"><g id="g40" clip-path="url(#clipPath42)"><g id="g46" transform="translate(13.5713,6)"><path id="path48" d="M 0,0 C -0.527,0 -0.86,-0.747 -1.071,-1.25 -1.282,-0.747 -1.616,0 -2.143,0 -2.87,0 -3.571,-0.664 -3.571,-1.482 c 0,-0.375 0.127,-0.756 0.329,-1.018 0.29,-0.35 2.221,-2.5 2.221,-2.5 0,0 1.83,2.15 2.12,2.5 0.203,0.262 0.33,0.643 0.33,1.018 C 1.429,-0.664 0.729,0 0,0" style="fill:#424242;fill-opacity:1;fill-rule:nonzero;stroke:none"/></g></g></g></g></svg>