<svg xmlns="http://www.w3.org/2000/svg" xmlns:svg="http://www.w3.org/2000/svg" id="svg2" width="20" height="20" version="1.1" viewBox="0 0 20 20" xml:space="preserve"><metadata id="metadata8"/><g id="g10" transform="matrix(1.25,0,0,-1.25,0,20)"><g id="g12" transform="translate(2.9997,16.0002)"><path id="path14" d="m 0,0 0,-3.001 -3,0 0,-7.999 9,0 0,3 3,0 0,8 -9,0 z" style="fill:#f6f6f6;fill-opacity:1;fill-rule:nonzero;stroke:none"/></g><g id="g16" transform="translate(11.7558,7.0002)"><path id="path18" d="m 0,0 -0.599,-2 -2.157,0 0,-1.5 1.393,-1.045 L -2.1,-7 -0.423,-7 0.744,-6.125 1.912,-7 3.588,-7 2.851,-4.545 4.244,-3.5 4.244,-2 2.088,-2 1.489,0 0,0 Z" style="fill:#f6f6f6;fill-opacity:1;fill-rule:nonzero;stroke:none"/></g><g id="g20" transform="translate(1,6)"><path id="path22" d="M 0,0 7,0 7,3 6,3 6,1 1,1 1,5.001 3,5.001 3,6 0,6 0,0 Z" style="fill:#424242;fill-opacity:1;fill-rule:nonzero;stroke:none"/></g><g id="g24" transform="translate(4,15)"><path id="path26" d="m 0,0 0,-3 1,0 0,2.001 5,0 L 6,-5 4,-5 4,-6 7,-6 7,0 0,0 Z" style="fill:#424242;fill-opacity:1;fill-rule:nonzero;stroke:none"/></g><path id="path28" d="M 8,9 4,9 4,12 8,12 8,9 Z" style="fill:#00539c;fill-opacity:1;fill-rule:nonzero;stroke:none"/><g id="g30" transform="translate(13.4492,2.8369)"><path id="path32" d="m 0,0 1.551,1.163 -1.901,0 -0.599,2 -0.6,-2 -1.9,0 1.551,-1.163 -0.551,-1.837 1.5,1.125 1.5,-1.125 L 0,0 Z" style="fill:#424242;fill-opacity:1;fill-rule:nonzero;stroke:none"/></g></g></svg>