<svg xmlns="http://www.w3.org/2000/svg" xmlns:svg="http://www.w3.org/2000/svg" id="svg2" width="20" height="20" version="1.1" viewBox="0 0 20 20" xml:space="preserve"><metadata id="metadata8"/><defs id="defs6"><clipPath id="clipPath16" clipPathUnits="userSpaceOnUse"><path id="path18" d="M 0,16 16,16 16,0 0,0 0,16 Z"/></clipPath><clipPath id="clipPath24" clipPathUnits="userSpaceOnUse"><path id="path26" d="M 0,16 16,16 16,0 0,0 0,16 Z"/></clipPath></defs><g id="g10" transform="matrix(1.25,0,0,-1.25,0,20)"><g id="g12"><g id="g14" clip-path="url(#clipPath16)"><g id="g20"><g id="g28"><g style="opacity:0" id="g30" clip-path="url(#clipPath24)"><path id="path32" d="M 16,0 0,0 0,16 16,16 16,0 Z" style="fill:#f6f6f6;fill-opacity:1;fill-rule:nonzero;stroke:none"/></g></g></g></g></g><g id="g34" transform="translate(0.9999,15.0003)"><path id="path36" d="m 0,0 0,-5 -1,0 0,-8.001 4,0 4,0 0,6.001 8,0 0,7 -15,0 z m 2,-8 1,0 1.001,0 0,-2 -1.001,0 -1,0 0,2 z" style="fill:#f6f6f6;fill-opacity:1;fill-rule:nonzero;stroke:none"/></g><g id="g38" transform="translate(1,3)"><path id="path40" d="M 0,0 2,0 2,1 1,1 1,5 2,5 2,6 0,6 0,0 Z" style="fill:#424242;fill-opacity:1;fill-rule:nonzero;stroke:none"/></g><g id="g42" transform="translate(5,8)"><path id="path44" d="M 0,0 1,0 1,-4 0,-4 0,-5 2,-5 2,1 0,1 0,0 Z" style="fill:#424242;fill-opacity:1;fill-rule:nonzero;stroke:none"/></g><g id="g46" transform="translate(3.9996,11.9997)"><path id="path48" d="m 0,0 0,-1 0,-1 1.001,0 0,2 L 0,0 Z" style="fill:#424242;fill-opacity:1;fill-rule:nonzero;stroke:none"/></g><g id="g50" transform="translate(14,10)"><path id="path52" d="m 0,0 -1,0 0,2 -1,0 0,-2 -1,0 0,3 3,0 0,-3 z m -12,4 0,-0.987 0,-3.013 1,0 0,1 0,2 3,0 0,-2 0,-1 1,0 0,3 3,0 0,-3 -1,0 0,2 -1,0 0,-2 0,-1 7,0 L 1,3.013 1,4 -12,4 Z" style="fill:#424242;fill-opacity:1;fill-rule:nonzero;stroke:none"/></g><g id="g54" transform="translate(7,10)"><path id="path56" d="M 0,0 1,0 1,2 2,2 2,0 3,0 3,3 0,3 0,0 Z" style="fill:#f0eff1;fill-opacity:1;fill-rule:nonzero;stroke:none"/></g><g id="g58" transform="translate(3,10)"><path id="path60" d="M 0,0 1,0 1,2 2,2 2,0 3,0 3,3 0,3 0,0 Z" style="fill:#f0eff1;fill-opacity:1;fill-rule:nonzero;stroke:none"/></g><g id="g62" transform="translate(11,13)"><path id="path64" d="m 0,0 0,-3 1,0 0,2 1,0 0,-2 1,0 0,3 -3,0 z" style="fill:#f0eff1;fill-opacity:1;fill-rule:nonzero;stroke:none"/></g></g></svg>